<svg width="439" height="222" viewBox="0 0 439 222" fill="none" xmlns="http://www.w3.org/2000/svg">
<path fill-rule="evenodd" clip-rule="evenodd" d="M1 11C1 5.47716 5.47715 1 11 1H428C433.523 1 438 5.47715 438 11V163.234C435.479 163.685 433.559 166.026 433.559 168.845C433.559 171.664 435.479 174.004 438 174.456V211C438 216.523 433.523 221 428 221H11C5.47715 221 1 216.523 1 211V174.456C3.52049 174.004 5.44105 171.664 5.44105 168.845C5.44105 166.026 3.52049 163.685 1 163.234V11Z" fill="white"/>
<path d="M438 163.234L438.088 163.726L438.5 163.652V163.234H438ZM438 174.456H438.5V174.038L438.088 173.964L438 174.456ZM1 174.456L0.911844 173.964L0.5 174.038V174.456H1ZM1 163.234H0.5V163.652L0.911844 163.726L1 163.234ZM11 0.5C5.20101 0.5 0.5 5.20101 0.5 11H1.5C1.5 5.7533 5.7533 1.5 11 1.5V0.5ZM428 0.5H11V1.5H428V0.5ZM438.5 11C438.5 5.20101 433.799 0.5 428 0.5V1.5C433.247 1.5 437.5 5.75329 437.5 11H438.5ZM438.5 163.234V11H437.5V163.234H438.5ZM434.059 168.845C434.059 166.248 435.825 164.132 438.088 163.726L437.912 162.742C435.134 163.239 433.059 165.803 433.059 168.845H434.059ZM438.088 173.964C435.825 173.558 434.059 171.441 434.059 168.845H433.059C433.059 171.887 435.134 174.451 437.912 174.948L438.088 173.964ZM438.5 211V174.456H437.5V211H438.5ZM428 221.5C433.799 221.5 438.5 216.799 438.5 211H437.5C437.5 216.247 433.247 220.5 428 220.5V221.5ZM11 221.5H428V220.5H11V221.5ZM0.5 211C0.5 216.799 5.20101 221.5 11 221.5V220.5C5.7533 220.5 1.5 216.247 1.5 211H0.5ZM0.5 174.456V211H1.5V174.456H0.5ZM4.94105 168.845C4.94105 171.441 3.17542 173.558 0.911844 173.964L1.08816 174.948C3.86555 174.451 5.94105 171.887 5.94105 168.845H4.94105ZM0.911844 163.726C3.17542 164.132 4.94105 166.248 4.94105 168.845H5.94105C5.94105 165.803 3.86555 163.239 1.08816 162.742L0.911844 163.726ZM0.5 11V163.234H1.5V11H0.5Z" fill="#EBEBEB"/>
<path d="M8.48169 168.243H430.382" stroke="#EBEBEB" stroke-linecap="round" stroke-dasharray="4 4"/>
</svg>
