<svg width="428" height="188" viewBox="0 0 428 188" fill="none" xmlns="http://www.w3.org/2000/svg">
<g filter="url(#filter0_d_923_24)">
<path fill-rule="evenodd" clip-rule="evenodd" d="M330.083 2H14C7.37258 2 2 7.37258 2 14V170C2 176.627 7.37258 182 14 182H330.083C330.559 179.162 333.027 177 336 177C338.973 177 341.441 179.162 341.917 182H410C416.627 182 422 176.627 422 170V14C422 7.37258 416.627 2 410 2H341.917C341.441 4.83771 338.973 7 336 7C333.027 7 330.559 4.83771 330.083 2Z" fill="#333333"/>
</g>
<path d="M342 12V172" stroke="#F5F5F5" stroke-opacity="0.1" stroke-dasharray="2 2"/>
<defs>
<filter id="filter0_d_923_24" x="0" y="0" width="428" height="188" filterUnits="userSpaceOnUse" color-interpolation-filters="sRGB">
<feFlood flood-opacity="0" result="BackgroundImageFix"/>
<feColorMatrix in="SourceAlpha" type="matrix" values="0 0 0 0 0 0 0 0 0 0 0 0 0 0 0 0 0 0 127 0" result="hardAlpha"/>
<feOffset dx="2" dy="2"/>
<feGaussianBlur stdDeviation="2"/>
<feComposite in2="hardAlpha" operator="out"/>
<feColorMatrix type="matrix" values="0 0 0 0 0 0 0 0 0 0 0 0 0 0 0 0 0 0 0.25 0"/>
<feBlend mode="normal" in2="BackgroundImageFix" result="effect1_dropShadow_923_24"/>
<feBlend mode="normal" in="SourceGraphic" in2="effect1_dropShadow_923_24" result="shape"/>
</filter>
</defs>
</svg>
