<svg width="22" height="24" viewBox="0 0 22 24" fill="none" xmlns="http://www.w3.org/2000/svg">
<path d="M1.05769 21.907H20.9423C21.2228 21.907 21.4919 22.0172 21.6902 22.2135C21.8886 22.4098 22 22.6759 22 22.9535C22 23.231 21.8886 23.4972 21.6902 23.6935C21.4919 23.8897 21.2228 24 20.9423 24H11H1.05769C0.777175 24 0.508147 23.8897 0.309791 23.6935C0.111435 23.4972 0 23.231 0 22.9535C0 22.6759 0.111435 22.4098 0.309791 22.2135C0.508147 22.0172 0.777175 21.907 1.05769 21.907ZM12.6218 14.7265L20.4318 6.99698L21.9274 8.47675L11.4583 18.8372L0.98718 8.47675L2.48276 6.99698L10.5064 14.9358V0H12.6218V14.7265Z" fill="white"/>
</svg>
