<svg width="420" height="180" viewBox="0 0 420 180" fill="none" xmlns="http://www.w3.org/2000/svg">
<path fill-rule="evenodd" clip-rule="evenodd" d="M328.083 0H12C5.37258 0 0 5.37258 0 12V168C0 174.627 5.37258 180 12 180H328.083C328.559 177.162 331.027 175 334 175C336.973 175 339.441 177.162 339.917 180H408C414.627 180 420 174.627 420 168V12C420 5.37258 414.627 0 408 0H339.917C339.441 2.83771 336.973 5 334 5C331.027 5 328.559 2.83771 328.083 0Z" fill="#333333"/>
<path d="M340 10V170" stroke="#F5F5F5" stroke-opacity="0.1" stroke-dasharray="2 2"/>
</svg>
