<svg width="420" height="226" viewBox="0 0 420 226" fill="none" xmlns="http://www.w3.org/2000/svg">
<path d="M57.7812 214.898L57.5859 213.406L66.5781 213.133V214.445L57.7812 214.898ZM66.9219 211.477H58.0156V210.094H66.9219V211.477ZM69.3359 218.18H56.4766V216.758H69.3359V218.18ZM63.7812 223.367H62.0391V217.859H63.7812V223.367ZM67.8281 211.375C67.8281 212.068 67.8203 212.674 67.8047 213.195C67.7891 213.711 67.737 214.305 67.6484 214.977C67.5651 215.648 67.4349 216.372 67.2578 217.148L65.5859 216.945C65.7682 216.216 65.901 215.531 65.9844 214.891C66.0729 214.245 66.1276 213.68 66.1484 213.195C66.1693 212.711 66.1797 212.104 66.1797 211.375V210.094H67.8281V211.375ZM81.9844 211.234H71.4531V209.836H81.9844V211.234ZM81.9062 215.297H71.5391V213.938H81.9062V215.297ZM75.1328 214.617H73.3906V210.414H75.1328V214.617ZM80.0391 214.617H78.3047V210.414H80.0391V214.617ZM83.1641 218.125H70.3047V216.75H83.1641V218.125ZM77.5859 217.578H75.8438V214.836H77.5859V217.578ZM81.7109 223.125H71.8906V221.703H81.7109V223.125ZM73.6328 222.211H71.8906V219.148H73.6328V222.211ZM96.9922 217.953H84.1328V216.562H96.9922V217.953ZM95.5391 223.125H85.7188V221.703H95.5391V223.125ZM87.4609 222.148H85.7188V218.992H87.4609V222.148ZM90.5625 209.727C91.5781 209.721 92.4688 209.833 93.2344 210.062C94 210.292 94.5911 210.622 95.0078 211.055C95.4245 211.487 95.6328 211.997 95.6328 212.586C95.6328 213.174 95.4245 213.685 95.0078 214.117C94.5911 214.544 94 214.875 93.2344 215.109C92.4688 215.344 91.5781 215.464 90.5625 215.469C89.5312 215.464 88.6328 215.344 87.8672 215.109C87.1016 214.875 86.5078 214.544 86.0859 214.117C85.6693 213.685 85.4609 213.174 85.4609 212.586C85.4609 211.997 85.6693 211.487 86.0859 211.055C86.5078 210.622 87.1016 210.292 87.8672 210.062C88.6328 209.833 89.5312 209.721 90.5625 209.727ZM90.5625 211.102C89.875 211.102 89.2839 211.159 88.7891 211.273C88.2943 211.388 87.9167 211.557 87.6562 211.781C87.3958 212.005 87.2656 212.273 87.2656 212.586C87.2656 212.893 87.3932 213.159 87.6484 213.383C87.9089 213.602 88.2865 213.768 88.7812 213.883C89.276 213.997 89.8698 214.055 90.5625 214.055C91.2448 214.055 91.8307 213.997 92.3203 213.883C92.8151 213.768 93.1927 213.602 93.4531 213.383C93.7188 213.159 93.8516 212.893 93.8516 212.586C93.8516 212.273 93.7188 212.005 93.4531 211.781C93.1927 211.557 92.8151 211.388 92.3203 211.273C91.8307 211.159 91.2448 211.102 90.5625 211.102ZM103.961 211.688H107.258V209.891H108.992V216.047H102.25V209.891H103.961V211.688ZM107.258 214.664V213H103.961V214.664H107.258ZM112.906 216.492H111.172V209.266H112.906V216.492ZM114.883 213.539H112.172V212.117H114.883V213.539ZM112.906 220.758H105.398V222.594H103.688V219.492H111.172V218.422H103.664V217.062H112.906V220.758ZM113.352 223.266H103.688V221.883H113.352V223.266ZM118.898 218.945H125.164V217.312H126.891V223.211H117.188V217.312H118.898V218.945ZM125.164 221.805V220.281H118.898V221.805H125.164ZM126.266 211.266H117.188V209.859H126.266V211.266ZM128.508 216.273H115.602V214.883H128.508V216.273ZM126.922 210.961C126.922 211.747 126.898 212.451 126.852 213.07C126.805 213.69 126.685 214.409 126.492 215.227L124.758 215.312C124.888 214.729 124.984 214.188 125.047 213.688C125.109 213.182 125.148 212.737 125.164 212.352C125.18 211.966 125.188 211.503 125.188 210.961V209.859H126.922V210.961ZM133.43 209.719C134.138 209.719 134.776 209.857 135.344 210.133C135.911 210.404 136.354 210.781 136.672 211.266C136.995 211.75 137.156 212.297 137.156 212.906C137.156 213.516 136.995 214.062 136.672 214.547C136.354 215.031 135.911 215.411 135.344 215.688C134.776 215.958 134.138 216.094 133.43 216.094C132.716 216.094 132.073 215.958 131.5 215.688C130.932 215.411 130.487 215.031 130.164 214.547C129.841 214.062 129.68 213.516 129.68 212.906C129.68 212.297 129.841 211.75 130.164 211.266C130.487 210.781 130.932 210.404 131.5 210.133C132.073 209.857 132.716 209.719 133.43 209.719ZM133.43 211.148C133.034 211.148 132.68 211.221 132.367 211.367C132.055 211.508 131.81 211.714 131.633 211.984C131.461 212.25 131.375 212.557 131.375 212.906C131.375 213.26 131.461 213.573 131.633 213.844C131.81 214.115 132.055 214.323 132.367 214.469C132.68 214.609 133.034 214.682 133.43 214.688C133.826 214.682 134.177 214.609 134.484 214.469C134.797 214.323 135.042 214.115 135.219 213.844C135.396 213.573 135.484 213.26 135.484 212.906C135.484 212.557 135.396 212.25 135.219 211.984C135.042 211.714 134.797 211.508 134.484 211.367C134.177 211.221 133.826 211.148 133.43 211.148ZM141.18 216.406H139.438V209.266H141.18V216.406ZM141.18 220.711H133.539V222.57H131.844V219.43H139.445V218.375H131.812V217.016H141.18V220.711ZM141.602 223.211H131.844V221.844H141.602V223.211ZM156.164 221.75H143.258V220.32H156.164V221.75ZM150.531 220.93H148.82V217.531H150.531V220.93ZM154.625 214.766H146.516V217.328H144.781V213.398H152.914V211.633H144.758V210.227H154.625V214.766ZM154.961 218.008H144.781V216.594H154.961V218.008ZM169.977 218.867H157.07V217.492H169.977V218.867ZM164.336 223.375H162.625V218.148H164.336V223.375ZM160.336 211.555H166.656V209.828H168.398V216.008H158.625V209.828H160.336V211.555ZM166.656 214.609V212.938H160.336V214.609H166.656ZM182.742 223.414H181.023V209.266H182.742V223.414ZM181.25 215.773H178.375V214.367H181.25V215.773ZM172.664 218.719C173.992 218.724 175.122 218.701 176.055 218.648C176.987 218.596 177.924 218.495 178.867 218.344L179.047 219.742C178.068 219.893 177.091 219.997 176.117 220.055C175.148 220.112 173.997 220.141 172.664 220.141H171.555V218.719H172.664ZM178.148 211.898H173.297V219.18H171.555V210.492H178.148V211.898ZM177.602 215.812H172.883V214.438H177.602V215.812ZM194.344 212.461V212.391H188.648V210.688H196.453V212.43L191.547 222H189.438L194.344 212.461ZM201.633 209.719C202.341 209.719 202.979 209.857 203.547 210.133C204.115 210.404 204.557 210.781 204.875 211.266C205.198 211.75 205.359 212.297 205.359 212.906C205.359 213.516 205.198 214.062 204.875 214.547C204.557 215.031 204.115 215.411 203.547 215.688C202.979 215.958 202.341 216.094 201.633 216.094C200.919 216.094 200.276 215.958 199.703 215.688C199.135 215.411 198.69 215.031 198.367 214.547C198.044 214.062 197.883 213.516 197.883 212.906C197.883 212.297 198.044 211.75 198.367 211.266C198.69 210.781 199.135 210.404 199.703 210.133C200.276 209.857 200.919 209.719 201.633 209.719ZM201.633 211.148C201.237 211.148 200.883 211.221 200.57 211.367C200.258 211.508 200.013 211.714 199.836 211.984C199.664 212.25 199.578 212.557 199.578 212.906C199.578 213.26 199.664 213.573 199.836 213.844C200.013 214.115 200.258 214.323 200.57 214.469C200.883 214.609 201.237 214.682 201.633 214.688C202.029 214.682 202.38 214.609 202.688 214.469C203 214.323 203.245 214.115 203.422 213.844C203.599 213.573 203.688 213.26 203.688 212.906C203.688 212.557 203.599 212.25 203.422 211.984C203.245 211.714 203 211.508 202.688 211.367C202.38 211.221 202.029 211.148 201.633 211.148ZM209.383 216.406H207.641V209.266H209.383V216.406ZM209.383 220.711H201.742V222.57H200.047V219.43H207.648V218.375H200.016V217.016H209.383V220.711ZM209.805 223.211H200.047V221.844H209.805V223.211ZM227.016 223.414H225.258V209.266H227.016V223.414ZM219.406 210.297C220.115 210.297 220.747 210.503 221.305 210.914C221.862 211.32 222.297 211.901 222.609 212.656C222.922 213.406 223.078 214.281 223.078 215.281C223.078 216.286 222.922 217.167 222.609 217.922C222.297 218.672 221.862 219.253 221.305 219.664C220.747 220.076 220.115 220.281 219.406 220.281C218.693 220.281 218.057 220.076 217.5 219.664C216.943 219.253 216.505 218.672 216.188 217.922C215.875 217.167 215.719 216.286 215.719 215.281C215.719 214.281 215.875 213.406 216.188 212.656C216.505 211.901 216.943 211.32 217.5 210.914C218.057 210.503 218.693 210.297 219.406 210.297ZM219.406 211.859C219.01 211.854 218.659 211.99 218.352 212.266C218.049 212.536 217.815 212.93 217.648 213.445C217.482 213.961 217.398 214.573 217.398 215.281C217.398 215.99 217.482 216.604 217.648 217.125C217.815 217.641 218.049 218.034 218.352 218.305C218.659 218.57 219.01 218.703 219.406 218.703C219.802 218.703 220.151 218.57 220.453 218.305C220.755 218.034 220.99 217.641 221.156 217.125C221.323 216.604 221.406 215.99 221.406 215.281C221.406 214.573 221.323 213.961 221.156 213.445C220.99 212.93 220.755 212.536 220.453 212.266C220.156 211.99 219.807 211.854 219.406 211.859ZM241.227 223.375H239.547V209.266H241.227V223.375ZM240.008 216.242H237.5V214.82H240.008V216.242ZM237.992 222.68H236.359V209.531H237.992V222.68ZM231.445 219.031H229.711V210.891H231.445V219.031ZM230.641 218.352C231.469 218.352 232.273 218.32 233.055 218.258C233.836 218.195 234.643 218.083 235.477 217.922L235.664 219.438C234.763 219.589 233.901 219.701 233.078 219.773C232.26 219.841 231.448 219.875 230.641 219.875H229.711V218.352H230.641ZM251.125 215.984H248.641V214.586H251.125V215.984ZM255.109 223.375H253.438V209.266H255.109V223.375ZM252.203 222.711H250.555V209.508H252.203V222.711ZM246.117 210.336C246.742 210.336 247.286 210.539 247.75 210.945C248.214 211.352 248.573 211.935 248.828 212.695C249.083 213.456 249.211 214.349 249.211 215.375C249.211 216.396 249.083 217.289 248.828 218.055C248.573 218.815 248.214 219.401 247.75 219.812C247.286 220.224 246.742 220.43 246.117 220.43C245.503 220.43 244.964 220.224 244.5 219.812C244.042 219.401 243.685 218.815 243.43 218.055C243.18 217.289 243.055 216.396 243.055 215.375C243.055 214.344 243.18 213.451 243.43 212.695C243.685 211.935 244.044 211.352 244.508 210.945C244.971 210.539 245.508 210.336 246.117 210.336ZM246.117 211.977C245.815 211.977 245.555 212.107 245.336 212.367C245.117 212.628 244.951 213.013 244.836 213.523C244.727 214.029 244.672 214.646 244.672 215.375C244.672 216.099 244.727 216.716 244.836 217.227C244.951 217.732 245.117 218.115 245.336 218.375C245.56 218.635 245.82 218.766 246.117 218.766C246.424 218.766 246.688 218.635 246.906 218.375C247.13 218.115 247.302 217.732 247.422 217.227C247.542 216.716 247.602 216.099 247.602 215.375C247.602 214.646 247.542 214.029 247.422 213.523C247.302 213.013 247.13 212.628 246.906 212.367C246.688 212.107 246.424 211.977 246.117 211.977ZM265.289 212.656C265.289 213.792 265.135 214.875 264.828 215.906C264.521 216.932 264.073 217.841 263.484 218.633C262.896 219.419 262.19 220.023 261.367 220.445L260.289 219.039C261.034 218.69 261.674 218.182 262.211 217.516C262.747 216.844 263.159 216.089 263.445 215.25C263.732 214.406 263.875 213.542 263.875 212.656V210.398H265.289V212.656ZM265.602 212.656C265.602 213.51 265.737 214.341 266.008 215.148C266.284 215.951 266.682 216.672 267.203 217.312C267.729 217.948 268.341 218.44 269.039 218.789L267.992 220.172C267.195 219.766 266.51 219.182 265.938 218.422C265.37 217.656 264.94 216.779 264.648 215.789C264.362 214.799 264.219 213.755 264.219 212.656V210.398H265.602V212.656ZM271.625 223.375H269.891V209.266H271.625V223.375ZM273.805 216.281H271.234V214.805H273.805V216.281ZM279.133 216.633H277.391V214.023H279.133V216.633ZM284.219 216.633H282.484V214.023H284.219V216.633ZM287.258 217.461H274.398V216.055H287.258V217.461ZM280.812 218.305C281.833 218.305 282.708 218.401 283.438 218.594C284.172 218.786 284.732 219.073 285.117 219.453C285.508 219.828 285.703 220.286 285.703 220.828C285.703 221.37 285.508 221.828 285.117 222.203C284.732 222.578 284.172 222.865 283.438 223.062C282.708 223.26 281.833 223.359 280.812 223.359C279.786 223.359 278.904 223.26 278.164 223.062C277.43 222.865 276.867 222.578 276.477 222.203C276.086 221.828 275.891 221.37 275.891 220.828C275.891 220.286 276.086 219.828 276.477 219.453C276.867 219.073 277.43 218.786 278.164 218.594C278.904 218.401 279.786 218.305 280.812 218.305ZM280.812 219.617C280.125 219.617 279.547 219.664 279.078 219.758C278.615 219.846 278.263 219.982 278.023 220.164C277.784 220.346 277.664 220.568 277.664 220.828C277.664 221.089 277.784 221.31 278.023 221.492C278.263 221.674 278.617 221.815 279.086 221.914C279.555 222.008 280.13 222.055 280.812 222.055C281.484 222.055 282.057 222.008 282.531 221.914C283.005 221.815 283.362 221.674 283.602 221.492C283.841 221.31 283.961 221.089 283.961 220.828C283.961 220.568 283.841 220.346 283.602 220.164C283.362 219.982 283.008 219.846 282.539 219.758C282.07 219.664 281.495 219.617 280.812 219.617ZM280.828 209.492C281.859 209.492 282.755 209.602 283.516 209.82C284.281 210.034 284.87 210.341 285.281 210.742C285.693 211.143 285.898 211.622 285.898 212.18C285.898 212.727 285.693 213.201 285.281 213.602C284.87 213.997 284.284 214.302 283.523 214.516C282.763 214.724 281.865 214.828 280.828 214.828C279.786 214.828 278.883 214.724 278.117 214.516C277.352 214.302 276.76 213.997 276.344 213.602C275.932 213.201 275.727 212.727 275.727 212.18C275.727 211.622 275.932 211.143 276.344 210.742C276.76 210.341 277.352 210.034 278.117 209.82C278.883 209.602 279.786 209.492 280.828 209.492ZM280.828 210.836C280.125 210.836 279.526 210.891 279.031 211C278.542 211.104 278.169 211.255 277.914 211.453C277.659 211.651 277.531 211.893 277.531 212.18C277.531 212.466 277.659 212.708 277.914 212.906C278.169 213.099 278.542 213.247 279.031 213.352C279.526 213.456 280.125 213.508 280.828 213.508C281.521 213.508 282.112 213.456 282.602 213.352C283.091 213.247 283.466 213.099 283.727 212.906C283.987 212.708 284.117 212.466 284.117 212.18C284.117 211.893 283.987 211.651 283.727 211.453C283.466 211.255 283.091 211.104 282.602 211C282.112 210.891 281.521 210.836 280.828 210.836ZM303.094 223.367H301.359V209.266H303.094V223.367ZM305.188 216.227H302.648V214.789H305.188V216.227ZM299.367 210.742C299.367 212.18 299.151 213.518 298.719 214.758C298.292 215.992 297.602 217.128 296.648 218.164C295.695 219.195 294.461 220.089 292.945 220.844L291.969 219.5C293.245 218.854 294.302 218.117 295.141 217.289C295.984 216.461 296.615 215.531 297.031 214.5C297.448 213.464 297.656 212.312 297.656 211.047V210.742H299.367ZM298.539 212.172H292.703V210.742H298.539V212.172ZM317.281 214.344H307.531V212.938H317.281V214.344ZM309.266 213.578H307.531V209.508H309.266V213.578ZM318.75 217.117H305.867V215.703H318.75V217.117ZM312.281 218.133C313.302 218.133 314.177 218.234 314.906 218.438C315.641 218.635 316.201 218.93 316.586 219.32C316.977 219.711 317.172 220.18 317.172 220.727C317.172 221.273 316.977 221.742 316.586 222.133C316.201 222.523 315.643 222.82 314.914 223.023C314.185 223.227 313.307 223.328 312.281 223.328C311.255 223.328 310.375 223.227 309.641 223.023C308.906 222.82 308.341 222.523 307.945 222.133C307.555 221.742 307.359 221.273 307.359 220.727C307.359 220.18 307.555 219.711 307.945 219.32C308.341 218.93 308.906 218.635 309.641 218.438C310.38 218.234 311.26 218.133 312.281 218.133ZM312.281 219.492C311.589 219.492 311.008 219.536 310.539 219.625C310.07 219.714 309.719 219.852 309.484 220.039C309.25 220.221 309.133 220.451 309.133 220.727C309.133 220.997 309.253 221.229 309.492 221.422C309.732 221.609 310.086 221.753 310.555 221.852C311.023 221.951 311.599 222 312.281 222C312.953 222 313.526 221.951 314 221.852C314.474 221.753 314.831 221.609 315.07 221.422C315.31 221.229 315.43 220.997 315.43 220.727C315.43 220.451 315.31 220.221 315.07 220.039C314.831 219.852 314.477 219.714 314.008 219.625C313.544 219.536 312.969 219.492 312.281 219.492ZM330.828 217.516H329.094V209.266H330.828V217.516ZM332.805 214.195H330.125V212.742H332.805V214.195ZM323.43 219.297H329.094V218.078H330.828V223.211H321.695V218.078H323.43V219.297ZM329.094 221.844V220.641H323.43V221.844H329.094ZM328.078 211.969H319.695V210.586H328.078V211.969ZM323.891 212.445C324.573 212.445 325.172 212.549 325.688 212.758C326.208 212.961 326.615 213.253 326.906 213.633C327.198 214.008 327.344 214.443 327.344 214.938C327.344 215.432 327.198 215.867 326.906 216.242C326.615 216.612 326.208 216.904 325.688 217.117C325.172 217.326 324.573 217.43 323.891 217.43C323.208 217.43 322.604 217.326 322.078 217.117C321.557 216.904 321.151 216.612 320.859 216.242C320.573 215.867 320.43 215.432 320.43 214.938C320.43 214.438 320.573 214 320.859 213.625C321.151 213.25 321.557 212.961 322.078 212.758C322.604 212.549 323.208 212.445 323.891 212.445ZM323.891 213.75C323.542 213.74 323.229 213.784 322.953 213.883C322.682 213.977 322.474 214.117 322.328 214.305C322.182 214.487 322.109 214.698 322.109 214.938C322.109 215.182 322.182 215.396 322.328 215.578C322.474 215.76 322.682 215.901 322.953 216C323.224 216.094 323.536 216.141 323.891 216.141C324.25 216.141 324.565 216.094 324.836 216C325.107 215.901 325.318 215.76 325.469 215.578C325.62 215.396 325.695 215.182 325.695 214.938C325.695 214.688 325.617 214.474 325.461 214.297C325.31 214.115 325.099 213.977 324.828 213.883C324.562 213.784 324.25 213.74 323.891 213.75ZM324.766 211.352H323.023V209.164H324.766V211.352ZM345.305 223.375H343.578V209.266H345.305V223.375ZM336.047 219.383H334.328V210.633H336.047V219.383ZM335.539 218.367C336.664 218.367 337.792 218.318 338.922 218.219C340.052 218.115 341.18 217.951 342.305 217.727L342.531 219.172C341.359 219.411 340.198 219.583 339.047 219.688C337.896 219.792 336.727 219.844 335.539 219.844H334.328V218.367H335.539ZM358.406 223.414H356.672V209.266H358.406V223.414ZM360.586 216.055H358.016V214.625H360.586V216.055ZM349.086 218.508C350.393 218.513 351.542 218.482 352.531 218.414C353.526 218.346 354.529 218.221 355.539 218.039L355.734 219.508C354.714 219.69 353.701 219.81 352.695 219.867C351.695 219.924 350.492 219.951 349.086 219.945H347.922V218.508H349.086ZM354.531 212.016H349.656V219.211H347.922V210.602H354.531V212.016ZM362.891 222.125C362.672 222.125 362.469 222.07 362.281 221.961C362.094 221.846 361.945 221.698 361.836 221.516C361.732 221.328 361.68 221.125 361.68 220.906C361.68 220.693 361.732 220.495 361.836 220.312C361.945 220.125 362.094 219.979 362.281 219.875C362.469 219.766 362.672 219.711 362.891 219.711C363.099 219.711 363.297 219.766 363.484 219.875C363.672 219.979 363.82 220.125 363.93 220.312C364.039 220.495 364.094 220.693 364.094 220.906C364.094 221.125 364.039 221.328 363.93 221.516C363.82 221.698 363.672 221.846 363.484 221.961C363.297 222.07 363.099 222.125 362.891 222.125Z" fill="black" fill-opacity="0.4"/>
<rect y="7" width="420" height="180" rx="12" fill="#333333"/>
<circle cx="334" cy="188" r="6" fill="white"/>
<circle cx="334" cy="6" r="6" fill="white"/>
<path d="M38.9844 84H33.6523V47.0859H33.418L23.1055 53.9414V48.6094L33.6523 41.5781H38.9844V84ZM64.1797 84.5859C61.0547 84.5859 58.3887 83.7363 56.1816 82.0371C53.9746 80.3379 52.2852 77.8574 51.1133 74.5957C49.9414 71.334 49.3555 67.3984 49.3555 62.7891C49.3555 58.2188 49.9414 54.3027 51.1133 51.041C52.2852 47.7793 53.9844 45.2891 56.2109 43.5703C58.4375 41.8516 61.0938 40.9922 64.1797 40.9922C67.2656 40.9922 69.9219 41.8516 72.1484 43.5703C74.375 45.2891 76.0742 47.7793 77.2461 51.041C78.418 54.3027 79.0039 58.2188 79.0039 62.7891C79.0039 67.3984 78.4277 71.334 77.2754 74.5957C76.123 77.8574 74.4336 80.3379 72.207 82.0371C69.9805 83.7363 67.3047 84.5859 64.1797 84.5859ZM64.1797 79.8984C66.2109 79.8984 67.9492 79.2344 69.3945 77.9062C70.8398 76.5781 71.9434 74.6348 72.7051 72.0762C73.4668 69.5176 73.8477 66.4219 73.8477 62.7891C73.8477 59.1562 73.4668 56.0508 72.7051 53.4727C71.9434 50.8945 70.8398 48.9316 69.3945 47.584C67.9492 46.2363 66.2109 45.5625 64.1797 45.5625C62.1484 45.5625 60.4102 46.2363 58.9648 47.584C57.5195 48.9316 56.4062 50.8945 55.625 53.4727C54.8438 56.0508 54.4531 59.1562 54.4531 62.7891C54.4531 66.4219 54.834 69.5176 55.5957 72.0762C56.3574 74.6348 57.4707 76.5781 58.9355 77.9062C60.4004 79.2344 62.1484 79.8984 64.1797 79.8984ZM86.6211 96.0117H82.2852L85.5078 80.0742H91.1914L86.6211 96.0117ZM112.344 84.5859C109.219 84.5859 106.553 83.7363 104.346 82.0371C102.139 80.3379 100.449 77.8574 99.2773 74.5957C98.1055 71.334 97.5195 67.3984 97.5195 62.7891C97.5195 58.2188 98.1055 54.3027 99.2773 51.041C100.449 47.7793 102.148 45.2891 104.375 43.5703C106.602 41.8516 109.258 40.9922 112.344 40.9922C115.43 40.9922 118.086 41.8516 120.312 43.5703C122.539 45.2891 124.238 47.7793 125.41 51.041C126.582 54.3027 127.168 58.2188 127.168 62.7891C127.168 67.3984 126.592 71.334 125.439 74.5957C124.287 77.8574 122.598 80.3379 120.371 82.0371C118.145 83.7363 115.469 84.5859 112.344 84.5859ZM112.344 79.8984C114.375 79.8984 116.113 79.2344 117.559 77.9062C119.004 76.5781 120.107 74.6348 120.869 72.0762C121.631 69.5176 122.012 66.4219 122.012 62.7891C122.012 59.1562 121.631 56.0508 120.869 53.4727C120.107 50.8945 119.004 48.9316 117.559 47.584C116.113 46.2363 114.375 45.5625 112.344 45.5625C110.312 45.5625 108.574 46.2363 107.129 47.584C105.684 48.9316 104.57 50.8945 103.789 53.4727C103.008 56.0508 102.617 59.1562 102.617 62.7891C102.617 66.4219 102.998 69.5176 103.76 72.0762C104.521 74.6348 105.635 76.5781 107.1 77.9062C108.564 79.2344 110.312 79.8984 112.344 79.8984ZM148.086 84.5859C144.961 84.5859 142.295 83.7363 140.088 82.0371C137.881 80.3379 136.191 77.8574 135.02 74.5957C133.848 71.334 133.262 67.3984 133.262 62.7891C133.262 58.2188 133.848 54.3027 135.02 51.041C136.191 47.7793 137.891 45.2891 140.117 43.5703C142.344 41.8516 145 40.9922 148.086 40.9922C151.172 40.9922 153.828 41.8516 156.055 43.5703C158.281 45.2891 159.98 47.7793 161.152 51.041C162.324 54.3027 162.91 58.2188 162.91 62.7891C162.91 67.3984 162.334 71.334 161.182 74.5957C160.029 77.8574 158.34 80.3379 156.113 82.0371C153.887 83.7363 151.211 84.5859 148.086 84.5859ZM148.086 79.8984C150.117 79.8984 151.855 79.2344 153.301 77.9062C154.746 76.5781 155.85 74.6348 156.611 72.0762C157.373 69.5176 157.754 66.4219 157.754 62.7891C157.754 59.1562 157.373 56.0508 156.611 53.4727C155.85 50.8945 154.746 48.9316 153.301 47.584C151.855 46.2363 150.117 45.5625 148.086 45.5625C146.055 45.5625 144.316 46.2363 142.871 47.584C141.426 48.9316 140.312 50.8945 139.531 53.4727C138.75 56.0508 138.359 59.1562 138.359 62.7891C138.359 66.4219 138.74 69.5176 139.502 72.0762C140.264 74.6348 141.377 76.5781 142.842 77.9062C144.307 79.2344 146.055 79.8984 148.086 79.8984ZM183.828 84.5859C180.703 84.5859 178.037 83.7363 175.83 82.0371C173.623 80.3379 171.934 77.8574 170.762 74.5957C169.59 71.334 169.004 67.3984 169.004 62.7891C169.004 58.2188 169.59 54.3027 170.762 51.041C171.934 47.7793 173.633 45.2891 175.859 43.5703C178.086 41.8516 180.742 40.9922 183.828 40.9922C186.914 40.9922 189.57 41.8516 191.797 43.5703C194.023 45.2891 195.723 47.7793 196.895 51.041C198.066 54.3027 198.652 58.2188 198.652 62.7891C198.652 67.3984 198.076 71.334 196.924 74.5957C195.771 77.8574 194.082 80.3379 191.855 82.0371C189.629 83.7363 186.953 84.5859 183.828 84.5859ZM183.828 79.8984C185.859 79.8984 187.598 79.2344 189.043 77.9062C190.488 76.5781 191.592 74.6348 192.354 72.0762C193.115 69.5176 193.496 66.4219 193.496 62.7891C193.496 59.1562 193.115 56.0508 192.354 53.4727C191.592 50.8945 190.488 48.9316 189.043 47.584C187.598 46.2363 185.859 45.5625 183.828 45.5625C181.797 45.5625 180.059 46.2363 178.613 47.584C177.168 48.9316 176.055 50.8945 175.273 53.4727C174.492 56.0508 174.102 59.1562 174.102 62.7891C174.102 66.4219 174.482 69.5176 175.244 72.0762C176.006 74.6348 177.119 76.5781 178.584 77.9062C180.049 79.2344 181.797 79.8984 183.828 79.8984Z" fill="white"/>
<path d="M26.3008 122.273H34.29V123.935H28.2344V127.802H33.8682V129.454H28.2344V133.339H34.3516V135H26.3008V122.273ZM41.1982 135H39.1855L35.7227 125.455H37.7441L40.1436 132.794H40.249L42.6572 125.455H44.6787L41.1982 135ZM49.9873 135.193C49.0674 135.193 48.2617 134.991 47.5703 134.587C46.8848 134.183 46.3574 133.611 45.9883 132.873C45.6191 132.135 45.4346 131.276 45.4346 130.298C45.4346 129.319 45.6191 128.455 45.9883 127.705C46.3574 126.949 46.876 126.366 47.5439 125.956C48.2119 125.54 48.9824 125.332 49.8555 125.332C50.6289 125.332 51.335 125.499 51.9736 125.833C52.6123 126.161 53.125 126.686 53.5117 127.406C53.8984 128.121 54.0918 129.026 54.0918 130.122V130.781H46.4893V129.384H52.2549C52.2549 128.897 52.1553 128.467 51.9561 128.092C51.7627 127.711 51.4844 127.412 51.1211 127.195C50.7578 126.979 50.3418 126.87 49.873 126.87C49.3633 126.87 48.915 126.993 48.5283 127.239C48.1416 127.485 47.8398 127.816 47.623 128.232C47.4062 128.648 47.2979 129.094 47.2979 129.568V130.658C47.2979 131.285 47.4092 131.824 47.6318 132.275C47.8604 132.727 48.1768 133.069 48.5811 133.304C48.9912 133.538 49.4629 133.655 49.9961 133.655C50.3359 133.655 50.6436 133.608 50.9189 133.515C51.1943 133.415 51.4287 133.292 51.6221 133.146C51.8154 132.993 51.9648 132.814 52.0703 132.609H53.9775C53.8369 133.125 53.585 133.576 53.2217 133.963C52.8584 134.35 52.3984 134.651 51.8418 134.868C51.291 135.085 50.6729 135.193 49.9873 135.193ZM57.8184 135H55.9463V125.455H57.7393V127.011H57.8623C58.0967 126.478 58.4482 126.064 58.917 125.771C59.3916 125.479 59.9805 125.332 60.6836 125.332C61.3398 125.332 61.9082 125.47 62.3887 125.745C62.875 126.015 63.25 126.419 63.5137 126.958C63.7832 127.497 63.918 128.153 63.918 128.927V135H62.0459V129.146C62.0459 128.689 61.9668 128.297 61.8086 127.969C61.6504 127.641 61.4219 127.392 61.123 127.222C60.8242 127.046 60.4609 126.958 60.0332 126.958C59.5996 126.958 59.2158 127.052 58.8818 127.239C58.5479 127.421 58.2871 127.693 58.0996 128.057C57.9121 128.414 57.8184 128.842 57.8184 129.34V135ZM70.6592 126.949H65.4385V125.455H70.6592V126.949ZM68.7256 123.17V132.196C68.7256 132.536 68.7754 132.797 68.875 132.979C68.9746 133.16 69.1064 133.286 69.2705 133.356C69.4346 133.427 69.6309 133.462 69.8594 133.462C70.1406 133.462 70.4541 133.45 70.7998 133.427V135.044C70.4658 135.097 70.0791 135.123 69.6396 135.123C69.1299 135.123 68.6611 135.029 68.2334 134.842C67.8115 134.648 67.4717 134.361 67.2139 133.98C66.9619 133.594 66.8359 133.125 66.8359 132.574V123.17H68.7256ZM74.6758 131.344H72.9443L72.7773 122.273H74.834L74.6758 131.344ZM73.8057 135.123C73.5889 135.123 73.3838 135.064 73.1904 134.947C72.9971 134.83 72.8447 134.678 72.7334 134.49C72.6221 134.297 72.5664 134.089 72.5664 133.866C72.5664 133.649 72.6221 133.444 72.7334 133.251C72.8447 133.058 72.9971 132.908 73.1904 132.803C73.3838 132.691 73.5889 132.636 73.8057 132.636C74.0283 132.636 74.2334 132.691 74.4209 132.803C74.6143 132.908 74.7666 133.058 74.8779 133.251C74.9951 133.444 75.0537 133.649 75.0537 133.866C75.0537 134.089 74.9951 134.297 74.8779 134.49C74.7666 134.678 74.6143 134.83 74.4209 134.947C74.2334 135.064 74.0283 135.123 73.8057 135.123ZM93.2998 125.719H89.3887V124.339H93.2998V125.719ZM86.4971 123.583C86.4971 124.608 86.3213 125.569 85.9697 126.466C85.6182 127.362 85.1143 128.145 84.458 128.812C83.8076 129.475 83.0283 129.984 82.1201 130.342L81.2236 128.997C82.0264 128.704 82.7207 128.285 83.3066 127.74C83.8984 127.189 84.3525 126.557 84.6689 125.842C84.9912 125.121 85.1523 124.368 85.1523 123.583V121.711H86.4971V123.583ZM86.8047 123.618C86.8047 124.339 86.957 125.033 87.2617 125.701C87.5723 126.363 88.0146 126.952 88.5889 127.468C89.1631 127.978 89.8369 128.373 90.6104 128.654L89.6875 129.955C88.832 129.615 88.0879 129.132 87.4551 128.505C86.8223 127.872 86.333 127.137 85.9873 126.299C85.6475 125.461 85.4775 124.567 85.4775 123.618V121.711H86.8047V123.618ZM94.3809 132.495H92.7109V120.753H94.3809V132.495ZM94.7324 136.178H84.0889V134.798H94.7324V136.178ZM85.7764 135.466H84.0889V131.194H85.7764V135.466ZM102.027 124.154C102.027 125.068 101.846 125.921 101.482 126.712C101.125 127.503 100.612 128.186 99.9443 128.76C99.2822 129.334 98.5029 129.768 97.6064 130.061L96.7715 128.751C97.5684 128.511 98.2598 128.159 98.8457 127.696C99.4375 127.233 99.8887 126.694 100.199 126.079C100.516 125.464 100.674 124.822 100.674 124.154V123.513H102.027V124.154ZM102.317 124.154C102.317 124.77 102.473 125.364 102.783 125.938C103.094 126.513 103.536 127.02 104.11 127.459C104.69 127.893 105.376 128.227 106.167 128.461L105.376 129.779C104.474 129.504 103.688 129.088 103.021 128.531C102.358 127.975 101.849 127.321 101.491 126.571C101.14 125.815 100.964 125.01 100.964 124.154V123.513H102.317V124.154ZM105.754 123.926H97.2461V122.599H105.754V123.926ZM102.353 123.249H100.674V120.691H102.353V123.249ZM109.182 130.368H107.521V120.735H109.182V130.368ZM111.476 126.255H108.716V124.84H111.476V126.255ZM109.182 136.521H107.521V132.486H98.7754V131.124H109.182V136.521ZM120.133 121.843C120.133 122.774 119.849 123.636 119.28 124.427C118.718 125.218 117.956 125.877 116.995 126.404C116.034 126.932 114.977 127.292 113.822 127.485L113.189 126.176C114.186 126.023 115.103 125.733 115.94 125.306C116.784 124.872 117.452 124.354 117.944 123.75C118.442 123.141 118.691 122.505 118.691 121.843V121.14H120.133V121.843ZM120.405 121.843C120.405 122.487 120.654 123.111 121.152 123.715C121.656 124.318 122.33 124.84 123.174 125.279C124.023 125.713 124.938 126 125.916 126.141L125.266 127.459C124.111 127.266 123.054 126.905 122.093 126.378C121.138 125.845 120.376 125.186 119.808 124.4C119.245 123.609 118.964 122.757 118.964 121.843V121.14H120.405V121.843ZM126.76 130.025H112.346V128.663H126.76V130.025ZM120.52 133.075H118.867V129.516H120.52V133.075ZM125.16 136.178H114.139V134.798H125.16V136.178ZM115.809 135.246H114.139V131.599H115.809V135.246ZM134.564 123.557H138.687V121.421H140.356V128.285H132.921V121.421H134.564V123.557ZM138.687 126.949V124.831H134.564V126.949H138.687ZM144.689 128.839H143.028V120.735H144.689V128.839ZM146.983 125.42H143.969V124.04H146.983V125.42ZM144.689 133.506H136.182V135.712H134.538V132.267H143.028V130.852H134.512V129.533H144.689V133.506ZM145.234 136.336H134.538V135H145.234V136.336ZM151.352 131.687H158.778V129.735H160.439V136.292H149.699V129.735H151.352V131.687ZM158.778 134.938V132.987H151.352V134.938H158.778ZM159.859 122.792H149.673V121.43H159.859V122.792ZM162.285 128.443H147.871V127.09H162.285V128.443ZM160.457 122.616C160.457 123.501 160.428 124.298 160.369 125.007C160.316 125.71 160.182 126.524 159.965 127.45L158.312 127.512C158.459 126.855 158.567 126.243 158.638 125.675C158.708 125.101 158.752 124.597 158.77 124.163C158.787 123.724 158.796 123.208 158.796 122.616V121.43H160.457V122.616ZM169.334 126.853L169.141 125.411L179.23 125.086V126.352L169.334 126.853ZM179.529 123.047H169.598V121.693H179.529V123.047ZM182.184 130.535H167.822V129.155H182.184V130.535ZM175.855 136.477H174.177V130.201H175.855V136.477ZM180.417 123.135C180.417 123.908 180.408 124.582 180.391 125.156C180.373 125.73 180.317 126.393 180.224 127.143C180.13 127.887 179.983 128.689 179.784 129.551L178.167 129.349C178.372 128.534 178.521 127.77 178.615 127.055C178.715 126.34 178.776 125.713 178.8 125.174C178.823 124.629 178.835 123.949 178.835 123.135V121.693H180.417V123.135ZM196.396 122.774H184.697V121.412H196.396V122.774ZM196.325 127.406H184.768V126.088H196.325V127.406ZM188.652 126.721H186.991V122.01H188.652V126.721ZM194.102 126.721H192.432V122.01H194.102V126.721ZM197.74 130.518H183.379V129.182H197.74V130.518ZM191.386 129.999H189.716V126.967H191.386V129.999ZM196.132 136.178H185.198V134.798H196.132V136.178ZM186.868 135.272H185.198V131.783H186.868V135.272Z" fill="white"/>
<path d="M29.7188 158H28.5938V147.852H28.5312L25.8516 149.617V148.477L28.5625 146.688H29.7188V158ZM43.6953 155.57H42.7109V145.445H43.6953V155.57ZM44.1406 158.891H34.8906V158.055H44.1406V158.891ZM35.8672 158.297H34.8906V154.531H35.8672V158.297ZM36.2812 146.438C36.9583 146.438 37.5677 146.578 38.1094 146.859C38.6562 147.135 39.0807 147.531 39.3828 148.047C39.6901 148.557 39.8438 149.135 39.8438 149.781C39.8438 150.438 39.6901 151.021 39.3828 151.531C39.0807 152.036 38.6562 152.432 38.1094 152.719C37.5677 153 36.9583 153.141 36.2812 153.141C35.6042 153.141 34.9948 153 34.4531 152.719C33.9115 152.432 33.487 152.036 33.1797 151.531C32.8724 151.021 32.7188 150.438 32.7188 149.781C32.7188 149.135 32.8724 148.557 33.1797 148.047C33.487 147.531 33.9115 147.135 34.4531 146.859C34.9948 146.578 35.6042 146.438 36.2812 146.438ZM36.2812 147.305C35.7917 147.305 35.3464 147.411 34.9453 147.625C34.5495 147.839 34.2396 148.135 34.0156 148.516C33.7969 148.891 33.6875 149.312 33.6875 149.781C33.6875 150.25 33.7969 150.677 34.0156 151.062C34.2396 151.443 34.5495 151.74 34.9453 151.953C35.3464 152.167 35.7917 152.273 36.2812 152.273C36.7708 152.273 37.2135 152.167 37.6094 151.953C38.0052 151.74 38.3151 151.443 38.5391 151.062C38.7682 150.677 38.8828 150.25 38.8828 149.781C38.8828 149.312 38.7682 148.891 38.5391 148.516C38.3151 148.135 38.0052 147.839 37.6094 147.625C37.2135 147.411 36.7708 147.305 36.2812 147.305ZM56.9219 153.734H55.9375V145.43H56.9219V153.734ZM59.0547 149.977H56.6406V149.133H59.0547V149.977ZM52.5312 154.016C53.4531 154.016 54.2526 154.117 54.9297 154.32C55.6068 154.518 56.125 154.812 56.4844 155.203C56.849 155.589 57.0312 156.052 57.0312 156.594C57.0312 157.13 56.8516 157.594 56.4922 157.984C56.1328 158.37 55.6146 158.664 54.9375 158.867C54.2656 159.07 53.4635 159.172 52.5312 159.172C51.599 159.172 50.7943 159.07 50.1172 158.867C49.4401 158.664 48.9167 158.37 48.5469 157.984C48.1823 157.594 48 157.13 48 156.594C48 156.052 48.1823 155.589 48.5469 155.203C48.9167 154.812 49.4401 154.518 50.1172 154.32C50.7995 154.117 51.6042 154.016 52.5312 154.016ZM52.5312 154.836C51.8177 154.831 51.1901 154.898 50.6484 155.039C50.1068 155.18 49.6901 155.385 49.3984 155.656C49.1068 155.922 48.9609 156.234 48.9609 156.594C48.9609 156.943 49.1068 157.253 49.3984 157.523C49.6901 157.794 50.1068 158.003 50.6484 158.148C51.1901 158.294 51.8177 158.367 52.5312 158.367C53.2448 158.367 53.8698 158.294 54.4062 158.148C54.9427 158.003 55.3568 157.794 55.6484 157.523C55.9401 157.253 56.0859 156.943 56.0859 156.594C56.0859 156.234 55.9401 155.922 55.6484 155.656C55.3568 155.385 54.9427 155.18 54.4062 155.039C53.8698 154.898 53.2448 154.831 52.5312 154.836ZM47.9141 151.664C49.4141 151.654 50.625 151.617 51.5469 151.555C52.474 151.492 53.3984 151.367 54.3203 151.18L54.4297 152.008C53.4714 152.195 52.5182 152.323 51.5703 152.391C50.6224 152.453 49.4036 152.484 47.9141 152.484H46.8672V151.664H47.9141ZM52.9688 147.359H47.8281V152.195H46.8672V146.523H52.9688V147.359ZM68 158H66.875V147.852H66.8125L64.1328 149.617V148.477L66.8438 146.688H68V158ZM75.0078 148.109C75.0078 148.922 74.8411 149.682 74.5078 150.391C74.1797 151.094 73.724 151.706 73.1406 152.227C72.5573 152.747 71.8932 153.146 71.1484 153.422L70.6406 152.633C71.3073 152.393 71.9115 152.049 72.4531 151.602C73 151.148 73.4297 150.62 73.7422 150.016C74.0599 149.411 74.2188 148.776 74.2188 148.109V146.891H75.0078V148.109ZM75.1719 148.102C75.1719 148.711 75.3203 149.292 75.6172 149.844C75.9193 150.396 76.3281 150.88 76.8438 151.297C77.3646 151.708 77.9557 152.029 78.6172 152.258L78.1484 153.039C77.4089 152.779 76.7552 152.406 76.1875 151.922C75.6198 151.438 75.1745 150.867 74.8516 150.211C74.5286 149.555 74.3672 148.852 74.3672 148.102V146.891H75.1719V148.102ZM78.3828 147.312H70.9688V146.484H78.3828V147.312ZM81.3672 153.797H80.3906V145.43H81.3672V153.797ZM83.5078 149.898H81.0938V149.055H83.5078V149.898ZM76.9844 154.203C77.9167 154.203 78.7214 154.299 79.3984 154.492C80.0755 154.685 80.5911 154.966 80.9453 155.336C81.3047 155.706 81.4844 156.151 81.4844 156.672C81.4844 157.193 81.3047 157.641 80.9453 158.016C80.5911 158.391 80.0755 158.677 79.3984 158.875C78.7214 159.073 77.9167 159.172 76.9844 159.172C76.0469 159.172 75.237 159.073 74.5547 158.875C73.8776 158.677 73.3568 158.391 72.9922 158.016C72.6328 157.641 72.4531 157.193 72.4531 156.672C72.4531 156.151 72.6328 155.706 72.9922 155.336C73.3568 154.966 73.8776 154.685 74.5547 154.492C75.237 154.299 76.0469 154.203 76.9844 154.203ZM76.9844 155.016C76.2708 155.016 75.6458 155.081 75.1094 155.211C74.5729 155.341 74.1589 155.534 73.8672 155.789C73.5807 156.039 73.4375 156.333 73.4375 156.672C73.4375 157.016 73.5807 157.315 73.8672 157.57C74.1589 157.826 74.5703 158.021 75.1016 158.156C75.6328 158.297 76.2604 158.367 76.9844 158.367C77.7135 158.367 78.3438 158.297 78.875 158.156C79.4062 158.021 79.8151 157.826 80.1016 157.57C80.3932 157.315 80.5391 157.016 80.5391 156.672C80.5391 156.333 80.3932 156.039 80.1016 155.789C79.8151 155.534 79.4036 155.341 78.8672 155.211C78.3307 155.081 77.7031 155.016 76.9844 155.016ZM95.8906 159.219H94.9062V155.117H86.5547V154.312H95.8906V159.219ZM95.8906 153.555H94.9062V145.43H95.8906V153.555ZM87.3984 147.922C87.3984 148.49 87.3125 149.086 87.1406 149.711C86.9688 150.331 86.7031 150.917 86.3438 151.469C85.9844 152.021 85.5286 152.458 84.9766 152.781L84.4141 152.062C84.9193 151.776 85.3385 151.391 85.6719 150.906C86.0052 150.422 86.25 149.917 86.4062 149.391C86.5625 148.865 86.6406 148.375 86.6406 147.922V146.266H87.3984V147.922ZM87.5938 147.922C87.5938 148.359 87.6562 148.844 87.7812 149.375C87.9115 149.906 88.125 150.424 88.4219 150.93C88.724 151.435 89.1172 151.849 89.6016 152.172L89.0781 152.922C88.5365 152.578 88.0964 152.115 87.7578 151.531C87.4245 150.943 87.1901 150.333 87.0547 149.703C86.9193 149.068 86.8516 148.474 86.8516 147.922V146.266H87.5938V147.922ZM91.3047 147.922C91.3047 148.505 91.2344 149.115 91.0938 149.75C90.9583 150.38 90.724 150.982 90.3906 151.555C90.0625 152.128 89.625 152.583 89.0781 152.922L88.5625 152.172C89.0521 151.859 89.4453 151.458 89.7422 150.969C90.0391 150.474 90.25 149.961 90.375 149.43C90.5 148.898 90.5625 148.396 90.5625 147.922V146.266H91.3047V147.922ZM91.4922 147.922C91.4922 148.438 91.5729 148.961 91.7344 149.492C91.901 150.023 92.151 150.518 92.4844 150.977C92.8229 151.435 93.2448 151.797 93.75 152.062L93.2031 152.781C92.6406 152.474 92.1771 152.057 91.8125 151.531C91.4479 151 91.1823 150.424 91.0156 149.805C90.849 149.18 90.7656 148.552 90.7656 147.922V146.266H91.4922V147.922ZM103.781 148.102H108.18V146H109.148V151.992H102.812V146H103.781V148.102ZM108.18 151.18V148.891H103.781V151.18H108.18ZM112.898 152.602H111.922V145.43H112.898V152.602ZM115.039 149.359H112.438V148.516H115.039V149.359ZM112.898 156.492H105.211V158.711H104.25V155.719H111.922V154.102H104.219V153.289H112.898V156.492ZM113.445 159.039H104.25V158.219H113.445V159.039ZM118.672 155.281H125.945V153.336H126.922V159.016H117.688V153.336H118.672V155.281ZM125.945 158.203V156.078H118.672V158.203H125.945ZM126.625 146.914H117.617V146.078H126.625V146.914ZM128.625 151.984H116V151.148H128.625V151.984ZM126.914 147.07C126.914 147.841 126.888 148.549 126.836 149.195C126.784 149.841 126.656 150.583 126.453 151.422L125.492 151.398C125.633 150.815 125.734 150.268 125.797 149.758C125.859 149.247 125.898 148.802 125.914 148.422C125.93 148.036 125.938 147.586 125.938 147.07V146.078H126.914V147.07ZM144.312 159.219H143.32V145.43H144.312V159.219ZM146.633 151.984H144.047V151.148H146.633V151.984ZM140.773 146.938C140.773 148.25 140.549 149.497 140.102 150.68C139.654 151.857 138.956 152.945 138.008 153.945C137.06 154.94 135.862 155.797 134.414 156.516L133.867 155.734C135.164 155.089 136.253 154.326 137.133 153.445C138.018 152.56 138.685 151.583 139.133 150.516C139.581 149.443 139.805 148.299 139.805 147.086V146.938H140.773ZM140.312 147.781H134.469V146.938H140.312V147.781ZM158.648 150.25H149.289V149.414H158.648V150.25ZM150.266 149.781H149.289V145.719H150.266V149.781ZM160.102 152.828H147.531V152H160.102V152.828ZM153.812 154.18C154.802 154.18 155.648 154.276 156.352 154.469C157.055 154.661 157.594 154.945 157.969 155.32C158.349 155.695 158.539 156.146 158.539 156.672C158.539 157.188 158.349 157.63 157.969 158C157.594 158.375 157.052 158.659 156.344 158.852C155.641 159.049 154.797 159.148 153.812 159.148C152.828 159.148 151.979 159.049 151.266 158.852C150.557 158.659 150.013 158.375 149.633 158C149.258 157.63 149.07 157.188 149.07 156.672C149.07 156.146 149.258 155.695 149.633 155.32C150.013 154.945 150.557 154.661 151.266 154.469C151.974 154.276 152.823 154.18 153.812 154.18ZM153.812 154.977C153.047 154.977 152.38 155.044 151.812 155.18C151.25 155.31 150.818 155.505 150.516 155.766C150.219 156.021 150.07 156.323 150.07 156.672C150.07 157.016 150.221 157.315 150.523 157.57C150.826 157.826 151.258 158.021 151.82 158.156C152.383 158.297 153.047 158.367 153.812 158.367C154.573 158.367 155.234 158.297 155.797 158.156C156.359 158.021 156.792 157.826 157.094 157.57C157.396 157.315 157.547 157.016 157.547 156.672C157.547 156.323 157.396 156.021 157.094 155.766C156.792 155.505 156.359 155.31 155.797 155.18C155.24 155.044 154.578 154.977 153.812 154.977Z" fill="white" fill-opacity="0.4"/>
<path d="M370.058 106.907H389.942C390.223 106.907 390.492 107.017 390.69 107.213C390.889 107.41 391 107.676 391 107.953C391 108.231 390.889 108.497 390.69 108.693C390.492 108.89 390.223 109 389.942 109H380H370.058C369.777 109 369.508 108.89 369.31 108.693C369.111 108.497 369 108.231 369 107.953C369 107.676 369.111 107.41 369.31 107.213C369.508 107.017 369.777 106.907 370.058 106.907ZM381.622 99.7265L389.432 91.997L390.927 93.4767L380.458 103.837L369.987 93.4767L371.483 91.997L379.506 99.9358V85H381.622V99.7265Z" fill="white"/>
<path d="M340 17V177" stroke="#F5F5F5" stroke-opacity="0.1" stroke-dasharray="2 2"/>
<rect x="357" y="151" width="46" height="18" rx="5" fill="#44A9FF"/>
<path d="M371.832 156.91H374.098V155.675H375.291V159.907H370.655V155.675H371.832V156.91ZM374.098 158.957V157.812H371.832V158.957H374.098ZM377.981 160.213H376.789V155.245H377.981V160.213ZM379.34 158.183H377.477V157.206H379.34V158.183ZM377.981 163.146H372.82V164.408H371.644V162.276H376.789V161.54H371.627V160.605H377.981V163.146ZM378.288 164.87H371.644V163.919H378.288V164.87ZM382.101 161.9H386.409V160.777H387.596V164.833H380.925V160.777H382.101V161.9ZM386.409 163.866V162.818H382.101V163.866H386.409ZM387.166 156.62H380.925V155.653H387.166V156.62ZM388.708 160.063H379.834V159.107H388.708V160.063ZM387.617 156.411C387.617 156.951 387.601 157.435 387.569 157.861C387.537 158.287 387.454 158.781 387.322 159.343L386.129 159.402C386.219 159.001 386.285 158.629 386.328 158.285C386.371 157.938 386.398 157.632 386.409 157.367C386.419 157.102 386.425 156.783 386.425 156.411V155.653H387.617V156.411Z" fill="black" fill-opacity="0.4"/>
</svg>
