<svg width="1920" height="500" viewBox="0 0 1920 500" fill="none" xmlns="http://www.w3.org/2000/svg">
<g clip-path="url(#clip0_734_80)">
<rect width="1920" height="500" fill="url(#paint0_radial_734_80)"/>
<rect width="1920" height="500" fill="black"/>
<g filter="url(#filter0_f_734_80)">
<circle cx="447.5" cy="628.5" r="446.5" fill="#395B62"/>
</g>
<g filter="url(#filter1_f_734_80)">
<ellipse cx="447.5" cy="103" rx="446.5" ry="445" fill="#030426"/>
</g>
<g filter="url(#filter2_f_734_80)">
<ellipse cx="750.82" cy="-270.438" rx="399.22" ry="670.596" transform="rotate(-89.8793 750.82 -270.438)" fill="#1A1E3F"/>
<path d="M751.66 -669.157C936.765 -668.767 1104.23 -623.747 1225.34 -551.3C1346.46 -478.848 1421.15 -379.021 1420.91 -269.026C1420.68 -159.031 1345.58 -59.5199 1224.15 12.422C1102.74 84.3575 935.085 128.672 749.98 128.282C564.875 127.892 397.412 82.8713 276.3 10.4247C155.177 -62.0282 80.4935 -161.855 80.7252 -271.85C80.957 -381.845 156.061 -481.356 277.488 -553.298C398.904 -625.233 566.555 -669.547 751.66 -669.157Z" stroke="black"/>
</g>
<g filter="url(#filter3_f_734_80)">
<path d="M1920 -75C1920 338.661 1720.1 674 1473.5 674C1226.9 674 1027 338.661 1027 -75C1027 -488.661 1226.9 -824 1473.5 -824C1720.1 -824 1920 -488.661 1920 -75Z" fill="#141B40"/>
</g>
<g filter="url(#filter4_f_734_80)">
<ellipse cx="1440.5" cy="465.5" rx="445.5" ry="446.5" fill="#060508"/>
</g>
<g style="mix-blend-mode:hard-light" filter="url(#filter5_f_734_80)">
<path d="M739 177.643H789.72C798.503 177.643 806.215 179.368 812.857 182.819C819.554 186.269 824.713 191.171 828.336 197.525C832.014 203.878 833.853 211.19 833.853 219.46C833.853 227.84 831.959 235.152 828.172 241.395C824.439 247.584 819.169 252.377 812.363 255.772C805.556 259.168 797.652 260.866 788.65 260.866H770.288V236.384H782.557C786.454 236.384 789.802 235.699 792.602 234.33C795.401 232.961 797.515 231.016 798.942 228.497C800.424 225.978 801.165 222.965 801.165 219.46C801.165 215.955 800.424 212.942 798.942 210.423C797.515 207.903 795.401 205.987 792.602 204.672C789.857 203.358 786.509 202.7 782.557 202.7H770.288V296.603H739V177.643Z" fill="url(#paint1_linear_734_80)" fill-opacity="0.5"/>
<path d="M948.549 177.643V254.047C948.549 262.865 946.408 270.588 942.127 277.215C937.9 283.787 931.889 288.908 924.095 292.578C916.355 296.193 907.408 298 897.253 298C887.098 298 878.178 296.193 870.493 292.578C862.808 288.908 856.825 283.787 852.544 277.215C848.317 270.588 846.204 262.865 846.204 254.047V177.643H877.492V251.336C877.492 255.06 878.343 258.429 880.044 261.441C881.746 264.399 884.106 266.726 887.125 268.424C890.144 270.122 893.52 270.971 897.253 270.971C901.15 270.971 904.608 270.122 907.627 268.424C910.646 266.726 912.979 264.399 914.626 261.441C916.273 258.429 917.096 255.06 917.096 251.336V177.643H948.549Z" fill="url(#paint2_linear_734_80)" fill-opacity="0.5"/>
<path d="M1028.66 214.366C1028.44 211.683 1027.7 209.382 1026.44 207.465C1025.18 205.548 1023.34 204.124 1020.92 203.193C1018.56 202.207 1015.57 201.714 1011.95 201.714C1008.66 201.714 1005.88 202.125 1003.63 202.947C1001.44 203.768 999.763 204.919 998.61 206.397C997.513 207.821 996.964 209.464 996.964 211.327C996.854 214.339 998.116 216.749 1000.75 218.556C1003.39 220.364 1007.59 221.952 1013.35 223.321L1023.31 225.293C1035.99 228.031 1045.3 232.44 1051.22 238.52C1057.21 244.545 1060.25 252.24 1060.36 261.605C1060.36 269.328 1058.41 275.9 1054.52 281.323C1050.68 286.69 1045.16 290.825 1037.97 293.728C1030.83 296.576 1022.24 298 1012.2 298C1001.82 298 992.819 296.439 985.189 293.317C977.559 290.195 971.686 285.485 967.569 279.187C963.452 272.833 961.311 264.892 961.147 255.362H991.118C991.337 258.976 992.298 262.071 993.999 264.645C995.701 267.165 998.061 269.081 1001.08 270.396C1004.1 271.656 1007.67 272.286 1011.78 272.286C1015.3 272.286 1018.29 271.82 1020.76 270.889C1023.23 269.958 1025.1 268.698 1026.36 267.11C1027.68 265.521 1028.33 263.687 1028.33 261.605C1028.33 259.634 1027.73 257.936 1026.52 256.512C1025.32 255.088 1023.37 253.828 1020.68 252.733C1017.99 251.582 1014.45 250.542 1010.06 249.611L998.034 246.9C987.111 244.599 978.74 240.738 972.921 235.316C967.157 229.839 964.276 222.582 964.276 213.545C964.276 206.151 966.307 199.633 970.369 193.992C974.431 188.296 980.057 183.887 987.248 180.765C994.493 177.588 1002.75 176 1012.03 176C1021.47 176 1029.68 177.588 1036.65 180.765C1043.68 183.887 1049.11 188.351 1052.95 194.156C1056.8 199.962 1058.72 206.699 1058.72 214.366H1028.66Z" fill="url(#paint3_linear_734_80)" fill-opacity="0.5"/>
<path d="M1073.29 177.643H1104.58V224.471H1148.71V177.643H1180V296.603H1148.71V249.693H1104.58V296.603H1073.29V177.643Z" fill="url(#paint4_linear_734_80)" fill-opacity="0.5"/>
</g>
<g style="mix-blend-mode:hard-light" filter="url(#filter6_f_734_80)">
<path d="M739 419.357H789.72C798.503 419.357 806.215 417.632 812.857 414.181C819.554 410.731 824.713 405.829 828.336 399.475C832.014 393.122 833.853 385.81 833.853 377.54C833.853 369.16 831.959 361.848 828.172 355.605C824.439 349.416 819.169 344.623 812.363 341.228C805.556 337.832 797.652 336.134 788.65 336.134H770.288V360.616H782.557C786.454 360.616 789.802 361.301 792.602 362.67C795.401 364.039 797.515 365.984 798.942 368.503C800.424 371.022 801.165 374.035 801.165 377.54C801.165 381.045 800.424 384.058 798.942 386.577C797.515 389.097 795.401 391.013 792.602 392.328C789.857 393.642 786.509 394.3 782.557 394.3H770.288V300.397H739V419.357Z" fill="url(#paint5_linear_734_80)" fill-opacity="0.4"/>
<path d="M948.549 419.357V342.953C948.549 334.135 946.408 326.412 942.127 319.785C937.9 313.213 931.889 308.092 924.095 304.422C916.355 300.807 907.408 299 897.253 299C887.098 299 878.178 300.807 870.493 304.422C862.808 308.092 856.825 313.213 852.544 319.785C848.317 326.412 846.204 334.135 846.204 342.953V419.357H877.492V345.664C877.492 341.94 878.343 338.571 880.044 335.559C881.746 332.601 884.106 330.274 887.125 328.576C890.144 326.878 893.52 326.029 897.253 326.029C901.15 326.029 904.608 326.878 907.627 328.576C910.646 330.274 912.979 332.601 914.626 335.559C916.273 338.571 917.096 341.94 917.096 345.664V419.357H948.549Z" fill="url(#paint6_linear_734_80)" fill-opacity="0.4"/>
<path d="M1028.66 382.634C1028.44 385.317 1027.7 387.618 1026.44 389.535C1025.18 391.452 1023.34 392.876 1020.92 393.807C1018.56 394.793 1015.57 395.286 1011.95 395.286C1008.66 395.286 1005.88 394.875 1003.63 394.053C1001.44 393.232 999.763 392.081 998.61 390.603C997.513 389.179 996.964 387.536 996.964 385.673C996.854 382.661 998.116 380.251 1000.75 378.444C1003.39 376.636 1007.59 375.048 1013.35 373.679L1023.31 371.707C1035.99 368.969 1045.3 364.56 1051.22 358.48C1057.21 352.455 1060.25 344.76 1060.36 335.395C1060.36 327.672 1058.41 321.1 1054.52 315.677C1050.68 310.31 1045.16 306.175 1037.97 303.272C1030.83 300.424 1022.24 299 1012.2 299C1001.82 299 992.819 300.561 985.189 303.683C977.559 306.805 971.686 311.515 967.569 317.813C963.452 324.167 961.311 332.108 961.147 341.638H991.118C991.337 338.024 992.298 334.929 993.999 332.355C995.701 329.835 998.061 327.919 1001.08 326.604C1004.1 325.344 1007.67 324.714 1011.78 324.714C1015.3 324.714 1018.29 325.18 1020.76 326.111C1023.23 327.042 1025.1 328.302 1026.36 329.89C1027.68 331.479 1028.33 333.313 1028.33 335.395C1028.33 337.366 1027.73 339.064 1026.52 340.488C1025.32 341.912 1023.37 343.172 1020.68 344.267C1017.99 345.418 1014.45 346.458 1010.06 347.389L998.034 350.1C987.111 352.401 978.74 356.262 972.921 361.684C967.157 367.161 964.276 374.418 964.276 383.455C964.276 390.849 966.307 397.367 970.369 403.008C974.431 408.704 980.057 413.113 987.248 416.235C994.493 419.412 1002.75 421 1012.03 421C1021.47 421 1029.68 419.412 1036.65 416.235C1043.68 413.113 1049.11 408.649 1052.95 402.844C1056.8 397.038 1058.72 390.301 1058.72 382.634H1028.66Z" fill="url(#paint7_linear_734_80)" fill-opacity="0.4"/>
<path d="M1073.29 419.357H1104.58V372.529H1148.71V419.357H1180V300.397H1148.71V347.307H1104.58V300.397H1073.29V419.357Z" fill="url(#paint8_linear_734_80)" fill-opacity="0.4"/>
</g>
<g style="mix-blend-mode:hard-light" filter="url(#filter7_f_734_80)">
<path d="M739 294.067H789.72C798.503 294.067 806.215 294.138 812.857 294.279C819.554 294.421 824.713 294.622 828.336 294.882C832.014 295.143 833.853 295.442 833.853 295.781C833.853 296.125 831.959 296.424 828.172 296.68C824.439 296.934 819.169 297.13 812.363 297.269C805.556 297.409 797.652 297.478 788.65 297.478H770.288V296.475H782.557C786.454 296.475 789.802 296.447 792.602 296.391C795.401 296.334 797.515 296.255 798.942 296.152C800.424 296.048 801.165 295.925 801.165 295.781C801.165 295.637 800.424 295.514 798.942 295.411C797.515 295.308 795.401 295.229 792.602 295.175C789.857 295.121 786.509 295.094 782.557 295.094H770.288V298.943H739V294.067Z" fill="#001D2A"/>
<path d="M948.549 294.067V297.199C948.549 297.56 946.408 297.877 942.127 298.148C937.9 298.418 931.889 298.627 924.095 298.778C916.355 298.926 907.408 299 897.253 299C887.098 299 878.178 298.926 870.493 298.778C862.808 298.627 856.825 298.418 852.544 298.148C848.317 297.877 846.204 297.56 846.204 297.199V294.067H877.492V297.088C877.492 297.24 878.343 297.378 880.044 297.502C881.746 297.623 884.106 297.718 887.125 297.788C890.144 297.857 893.52 297.892 897.253 297.892C901.15 297.892 904.608 297.857 907.627 297.788C910.646 297.718 912.979 297.623 914.626 297.502C916.273 297.378 917.096 297.24 917.096 297.088V294.067H948.549Z" fill="#001D2A"/>
<path d="M1028.66 295.572C1028.44 295.462 1027.7 295.368 1026.44 295.29C1025.18 295.211 1023.34 295.153 1020.92 295.114C1018.56 295.074 1015.57 295.054 1011.95 295.054C1008.66 295.054 1005.88 295.071 1003.63 295.104C1001.44 295.138 999.763 295.185 998.61 295.246C997.512 295.304 996.964 295.371 996.964 295.448C996.854 295.571 998.116 295.67 1000.75 295.744C1003.39 295.818 1007.59 295.883 1013.35 295.939L1023.31 296.02C1035.99 296.132 1045.3 296.313 1051.22 296.562C1057.21 296.809 1060.25 297.125 1060.36 297.508C1060.36 297.825 1058.41 298.094 1054.52 298.316C1050.68 298.536 1045.16 298.706 1037.97 298.825C1030.83 298.942 1022.24 299 1012.2 299C1001.82 299 992.819 298.936 985.189 298.808C977.559 298.68 971.686 298.487 967.569 298.229C963.452 297.969 961.311 297.643 961.147 297.253H991.118C991.337 297.401 992.298 297.527 993.999 297.633C995.701 297.736 998.061 297.815 1001.08 297.869C1004.1 297.92 1007.67 297.946 1011.78 297.946C1015.3 297.946 1018.29 297.927 1020.76 297.889C1023.23 297.851 1025.1 297.799 1026.36 297.734C1027.68 297.669 1028.33 297.594 1028.33 297.508C1028.33 297.428 1027.73 297.358 1026.52 297.3C1025.32 297.241 1023.37 297.19 1020.68 297.145C1017.99 297.098 1014.45 297.055 1010.06 297.017L998.034 296.906C987.111 296.811 978.74 296.653 972.921 296.431C967.157 296.207 964.276 295.909 964.276 295.539C964.276 295.236 966.307 294.969 970.369 294.737C974.431 294.504 980.057 294.323 987.248 294.195C994.493 294.065 1002.75 294 1012.03 294C1021.47 294 1029.68 294.065 1036.65 294.195C1043.68 294.323 1049.11 294.506 1052.95 294.744C1056.8 294.982 1058.72 295.258 1058.72 295.572H1028.66Z" fill="#001D2A"/>
<path d="M1073.29 294.067H1104.58V295.987H1148.71V294.067H1180V298.943H1148.71V297.02H1104.58V298.943H1073.29V294.067Z" fill="#001D2A"/>
</g>
<g style="mix-blend-mode:hard-light">
<g filter="url(#filter8_iii_734_80)">
<path d="M739 177.643H789.72C798.503 177.643 806.215 179.368 812.857 182.819C819.554 186.269 824.713 191.171 828.336 197.525C832.014 203.878 833.853 211.19 833.853 219.46C833.853 227.84 831.959 235.152 828.172 241.395C824.439 247.584 819.169 252.377 812.363 255.772C805.556 259.168 797.652 260.866 788.65 260.866H770.288V236.384H782.557C786.454 236.384 789.802 235.699 792.602 234.33C795.401 232.961 797.515 231.016 798.942 228.497C800.424 225.978 801.165 222.965 801.165 219.46C801.165 215.955 800.424 212.942 798.942 210.423C797.515 207.903 795.401 205.987 792.602 204.672C789.857 203.358 786.509 202.7 782.557 202.7H770.288V296.603H739V177.643Z" fill="url(#paint9_linear_734_80)"/>
<path d="M948.549 177.643V254.047C948.549 262.865 946.408 270.588 942.127 277.215C937.9 283.787 931.889 288.908 924.095 292.578C916.355 296.193 907.408 298 897.253 298C887.098 298 878.178 296.193 870.493 292.578C862.808 288.908 856.825 283.787 852.544 277.215C848.317 270.588 846.204 262.865 846.204 254.047V177.643H877.492V251.336C877.492 255.06 878.343 258.429 880.044 261.441C881.746 264.399 884.106 266.726 887.125 268.424C890.144 270.122 893.52 270.971 897.253 270.971C901.15 270.971 904.608 270.122 907.627 268.424C910.646 266.726 912.979 264.399 914.626 261.441C916.273 258.429 917.096 255.06 917.096 251.336V177.643H948.549Z" fill="url(#paint10_linear_734_80)"/>
<path d="M1028.66 214.366C1028.44 211.683 1027.7 209.382 1026.44 207.465C1025.18 205.548 1023.34 204.124 1020.92 203.193C1018.56 202.207 1015.57 201.714 1011.95 201.714C1008.66 201.714 1005.88 202.125 1003.63 202.947C1001.44 203.768 999.763 204.919 998.61 206.397C997.513 207.821 996.964 209.464 996.964 211.327C996.854 214.339 998.116 216.749 1000.75 218.556C1003.39 220.364 1007.59 221.952 1013.35 223.321L1023.31 225.293C1035.99 228.031 1045.3 232.44 1051.22 238.52C1057.21 244.545 1060.25 252.24 1060.36 261.605C1060.36 269.328 1058.41 275.9 1054.52 281.323C1050.68 286.69 1045.16 290.825 1037.97 293.728C1030.83 296.576 1022.24 298 1012.2 298C1001.82 298 992.819 296.439 985.189 293.317C977.559 290.195 971.686 285.485 967.569 279.187C963.452 272.833 961.311 264.892 961.147 255.362H991.118C991.337 258.976 992.298 262.071 993.999 264.645C995.701 267.165 998.061 269.081 1001.08 270.396C1004.1 271.656 1007.67 272.286 1011.78 272.286C1015.3 272.286 1018.29 271.82 1020.76 270.889C1023.23 269.958 1025.1 268.698 1026.36 267.11C1027.68 265.521 1028.33 263.687 1028.33 261.605C1028.33 259.634 1027.73 257.936 1026.52 256.512C1025.32 255.088 1023.37 253.828 1020.68 252.733C1017.99 251.582 1014.45 250.542 1010.06 249.611L998.034 246.9C987.111 244.599 978.74 240.738 972.921 235.316C967.157 229.839 964.276 222.582 964.276 213.545C964.276 206.151 966.307 199.633 970.369 193.992C974.431 188.296 980.057 183.887 987.248 180.765C994.493 177.588 1002.75 176 1012.03 176C1021.47 176 1029.68 177.588 1036.65 180.765C1043.68 183.887 1049.11 188.351 1052.95 194.156C1056.8 199.962 1058.72 206.699 1058.72 214.366H1028.66Z" fill="url(#paint11_linear_734_80)"/>
<path d="M1073.29 177.643H1104.58V224.471H1148.71V177.643H1180V296.603H1148.71V249.693H1104.58V296.603H1073.29V177.643Z" fill="url(#paint12_linear_734_80)"/>
</g>
<path d="M739.5 178.143V177.643H789.72C798.503 177.643 806.215 179.368 812.857 182.819C819.554 186.269 824.713 191.171 828.336 197.525C832.014 203.878 833.853 211.19 833.853 219.46C833.853 227.84 831.959 235.152 828.172 241.395C824.439 247.584 819.169 252.377 812.363 255.772C805.556 259.168 797.652 260.866 788.65 260.866H770.788V260.366H788.65C797.588 260.366 805.414 258.68 812.14 255.325C818.866 251.969 824.062 247.24 827.743 241.137L827.744 241.136C831.478 234.981 833.353 227.762 833.353 219.46C833.353 211.266 831.532 204.043 827.904 197.775L827.902 197.772C824.329 191.506 819.241 186.671 812.628 183.263L812.626 183.263C806.067 179.855 798.436 178.143 789.72 178.143H739.5ZM739.5 178.143H739V296.103H739.5M739.5 178.143V296.103M739.5 296.103V296.603H769.788V296.103M739.5 296.103H769.788M769.788 296.103H770.288V261.366H769.788V296.103ZM799.375 228.747C797.894 231.359 795.703 233.37 792.821 234.779C789.939 236.189 786.511 236.884 782.557 236.884H770.788V236.384H782.557C786.454 236.384 789.802 235.699 792.602 234.33C795.401 232.961 797.515 231.016 798.942 228.497M799.375 228.747C800.909 226.137 801.665 223.035 801.665 219.46C801.665 215.885 800.909 212.782 799.375 210.173M799.375 228.747C799.374 228.748 799.373 228.749 799.373 228.75L798.942 228.497M799.375 228.747C799.375 228.746 799.376 228.745 799.377 228.743L798.942 228.497M799.375 210.173C797.893 207.559 795.7 205.575 792.816 204.22M799.375 210.173C799.375 210.174 799.376 210.175 799.377 210.176L798.942 210.423M799.375 210.173C799.374 210.172 799.373 210.171 799.373 210.169L798.942 210.423M792.816 204.22C789.987 202.866 786.561 202.2 782.557 202.2H770.288H769.788V202.7V235.884H770.288V203.2V202.7H770.788H782.557C786.509 202.7 789.857 203.358 792.602 204.672M792.816 204.22C792.817 204.221 792.817 204.221 792.818 204.221L792.602 204.672M792.816 204.22C792.815 204.22 792.815 204.22 792.814 204.219L792.602 204.672M792.602 204.672C795.401 205.987 797.515 207.903 798.942 210.423M798.942 210.423C800.424 212.942 801.165 215.955 801.165 219.46C801.165 222.965 800.424 225.978 798.942 228.497M917.596 251.336V178.143H948.049V254.047C948.049 262.781 945.93 270.406 941.707 276.943L941.706 276.944C937.535 283.43 931.601 288.492 923.882 292.125C916.22 295.704 907.348 297.5 897.253 297.5C887.158 297.5 878.313 295.704 870.707 292.126C863.099 288.493 857.19 283.431 852.963 276.943C848.795 270.407 846.704 262.781 846.704 254.047V178.143H876.992V251.336C876.992 255.14 877.862 258.594 879.609 261.687L879.611 261.69C881.358 264.727 883.784 267.119 886.88 268.86C889.98 270.603 893.441 271.471 897.253 271.471C901.225 271.471 904.77 270.605 907.872 268.86C910.97 267.118 913.37 264.725 915.063 261.684L915.065 261.681C916.755 258.589 917.596 255.137 917.596 251.336ZM1052.54 194.432C1056.24 200.022 1058.13 206.494 1058.21 213.866H1029.12C1028.85 211.307 1028.1 209.077 1026.86 207.19C1025.53 205.177 1023.61 203.693 1021.11 202.729C1018.67 201.711 1015.61 201.214 1011.95 201.214C1008.62 201.214 1005.78 201.63 1003.46 202.477L1003.46 202.479C1001.2 203.324 999.438 204.522 998.216 206.09L998.214 206.092C997.048 207.605 996.465 209.353 996.464 211.318C996.35 214.509 997.705 217.073 1000.47 218.969C1003.18 220.829 1007.45 222.434 1013.23 223.808L1013.24 223.81L1013.25 223.812L1023.21 225.782C1023.21 225.782 1023.21 225.782 1023.21 225.783C1035.84 228.511 1045.03 232.889 1050.87 238.869L1050.87 238.872C1056.75 244.794 1059.75 252.359 1059.86 261.609C1059.86 269.242 1057.94 275.707 1054.11 281.031L1054.11 281.032C1050.33 286.309 1044.9 290.391 1037.78 293.264C1030.72 296.082 1022.2 297.5 1012.2 297.5C1001.87 297.5 992.935 295.946 985.379 292.854C977.833 289.767 972.044 285.119 967.988 278.913C964.007 272.769 961.887 265.094 961.657 255.862H990.651C990.928 259.35 991.9 262.375 993.582 264.921L993.585 264.925C995.344 267.53 997.782 269.505 1000.88 270.854L1000.89 270.857C1003.98 272.148 1007.62 272.786 1011.78 272.786C1015.34 272.786 1018.39 272.315 1020.94 271.357C1023.46 270.404 1025.41 269.1 1026.75 267.425C1028.14 265.747 1028.83 263.8 1028.83 261.605C1028.83 259.522 1028.19 257.708 1026.9 256.188C1025.62 254.679 1023.59 253.381 1020.87 252.271C1018.14 251.104 1014.57 250.056 1010.16 249.122C1010.16 249.122 1010.16 249.122 1010.16 249.122L998.144 246.412L998.137 246.41C987.269 244.122 978.994 240.291 973.263 234.951C967.614 229.582 964.776 222.464 964.776 213.545C964.776 206.249 966.778 199.835 970.774 194.284L970.776 194.282C974.779 188.669 980.329 184.314 987.447 181.224L987.449 181.223C994.621 178.078 1002.81 176.5 1012.03 176.5C1021.42 176.5 1029.55 178.079 1036.44 181.22L1036.45 181.222C1043.4 184.309 1048.75 188.714 1052.54 194.432ZM1104.08 249.693V296.103H1073.79V178.143H1104.08V224.471V224.971H1104.58H1148.71H1149.21V224.471V178.143H1179.5V296.103H1149.21V249.693V249.193H1148.71H1104.58H1104.08V249.693Z" stroke="url(#paint13_linear_734_80)"/>
</g>
<g style="mix-blend-mode:hard-light" filter="url(#filter9_f_734_80)">
<path d="M739 177.643H789.72C798.503 177.643 806.215 179.368 812.857 182.819C819.554 186.269 824.713 191.171 828.336 197.525C832.014 203.878 833.853 211.19 833.853 219.46C833.853 227.84 831.959 235.152 828.172 241.395C824.439 247.584 819.169 252.377 812.363 255.772C805.556 259.168 797.652 260.866 788.65 260.866H770.288V236.384H782.557C786.454 236.384 789.802 235.699 792.602 234.33C795.401 232.961 797.515 231.016 798.942 228.497C800.424 225.978 801.165 222.965 801.165 219.46C801.165 215.955 800.424 212.942 798.942 210.423C797.515 207.903 795.401 205.987 792.602 204.672C789.857 203.358 786.509 202.7 782.557 202.7H770.288V296.603H739V177.643Z" fill="url(#paint14_radial_734_80)"/>
<path d="M948.549 177.643V254.047C948.549 262.865 946.408 270.588 942.127 277.215C937.9 283.787 931.889 288.908 924.095 292.578C916.355 296.193 907.408 298 897.253 298C887.098 298 878.178 296.193 870.493 292.578C862.808 288.908 856.825 283.787 852.544 277.215C848.317 270.588 846.204 262.865 846.204 254.047V177.643H877.492V251.336C877.492 255.06 878.343 258.429 880.044 261.441C881.746 264.399 884.106 266.726 887.125 268.424C890.144 270.122 893.52 270.971 897.253 270.971C901.15 270.971 904.608 270.122 907.627 268.424C910.646 266.726 912.979 264.399 914.626 261.441C916.273 258.429 917.096 255.06 917.096 251.336V177.643H948.549Z" fill="url(#paint15_radial_734_80)"/>
<path d="M1028.66 214.366C1028.44 211.683 1027.7 209.382 1026.44 207.465C1025.18 205.548 1023.34 204.124 1020.92 203.193C1018.56 202.207 1015.57 201.714 1011.95 201.714C1008.66 201.714 1005.88 202.125 1003.63 202.947C1001.44 203.768 999.763 204.919 998.61 206.397C997.513 207.821 996.964 209.464 996.964 211.327C996.854 214.339 998.116 216.749 1000.75 218.556C1003.39 220.364 1007.59 221.952 1013.35 223.321L1023.31 225.293C1035.99 228.031 1045.3 232.44 1051.22 238.52C1057.21 244.545 1060.25 252.24 1060.36 261.605C1060.36 269.328 1058.41 275.9 1054.52 281.323C1050.68 286.69 1045.16 290.825 1037.97 293.728C1030.83 296.576 1022.24 298 1012.2 298C1001.82 298 992.819 296.439 985.189 293.317C977.559 290.195 971.686 285.485 967.569 279.187C963.452 272.833 961.311 264.892 961.147 255.362H991.118C991.337 258.976 992.298 262.071 993.999 264.645C995.701 267.165 998.061 269.081 1001.08 270.396C1004.1 271.656 1007.67 272.286 1011.78 272.286C1015.3 272.286 1018.29 271.82 1020.76 270.889C1023.23 269.958 1025.1 268.698 1026.36 267.11C1027.68 265.521 1028.33 263.687 1028.33 261.605C1028.33 259.634 1027.73 257.936 1026.52 256.512C1025.32 255.088 1023.37 253.828 1020.68 252.733C1017.99 251.582 1014.45 250.542 1010.06 249.611L998.034 246.9C987.111 244.599 978.74 240.738 972.921 235.316C967.157 229.839 964.276 222.582 964.276 213.545C964.276 206.151 966.307 199.633 970.369 193.992C974.431 188.296 980.057 183.887 987.248 180.765C994.493 177.588 1002.75 176 1012.03 176C1021.47 176 1029.68 177.588 1036.65 180.765C1043.68 183.887 1049.11 188.351 1052.95 194.156C1056.8 199.962 1058.72 206.699 1058.72 214.366H1028.66Z" fill="url(#paint16_radial_734_80)"/>
<path d="M1073.29 177.643H1104.58V224.471H1148.71V177.643H1180V296.603H1148.71V249.693H1104.58V296.603H1073.29V177.643Z" fill="url(#paint17_radial_734_80)"/>
<path d="M739.5 178.143V177.643H789.72C798.503 177.643 806.215 179.368 812.857 182.819C819.554 186.269 824.713 191.171 828.336 197.525C832.014 203.878 833.853 211.19 833.853 219.46C833.853 227.84 831.959 235.152 828.172 241.395C824.439 247.584 819.169 252.377 812.363 255.772C805.556 259.168 797.652 260.866 788.65 260.866H770.788V260.366H788.65C797.588 260.366 805.414 258.68 812.14 255.325C818.866 251.969 824.062 247.24 827.743 241.137L827.744 241.136C831.478 234.981 833.353 227.762 833.353 219.46C833.353 211.266 831.532 204.043 827.904 197.775L827.902 197.772C824.329 191.506 819.241 186.671 812.628 183.263L812.626 183.263C806.067 179.855 798.436 178.143 789.72 178.143H739.5ZM739.5 178.143H739V296.103H739.5M739.5 178.143V296.103M739.5 296.103V296.603H769.788V296.103M739.5 296.103H769.788M769.788 296.103H770.288V261.366H769.788V296.103ZM799.375 228.747C797.894 231.359 795.703 233.37 792.821 234.779C789.939 236.189 786.511 236.884 782.557 236.884H770.788V236.384H782.557C786.454 236.384 789.802 235.699 792.602 234.33C795.401 232.961 797.515 231.016 798.942 228.497M799.375 228.747C800.909 226.137 801.665 223.035 801.665 219.46C801.665 215.885 800.909 212.782 799.375 210.173M799.375 228.747C799.374 228.748 799.373 228.749 799.373 228.75L798.942 228.497M799.375 228.747C799.375 228.746 799.376 228.745 799.377 228.743L798.942 228.497M799.375 210.173C797.893 207.559 795.7 205.575 792.816 204.22M799.375 210.173C799.375 210.174 799.376 210.175 799.377 210.176L798.942 210.423M799.375 210.173C799.374 210.172 799.373 210.171 799.373 210.169L798.942 210.423M792.816 204.22C789.987 202.866 786.561 202.2 782.557 202.2H770.288H769.788V202.7V235.884H770.288V203.2V202.7H770.788H782.557C786.509 202.7 789.857 203.358 792.602 204.672M792.816 204.22C792.817 204.221 792.817 204.221 792.818 204.221L792.602 204.672M792.816 204.22C792.815 204.22 792.815 204.22 792.814 204.219L792.602 204.672M792.602 204.672C795.401 205.987 797.515 207.903 798.942 210.423M798.942 210.423C800.424 212.942 801.165 215.955 801.165 219.46C801.165 222.965 800.424 225.978 798.942 228.497M917.596 251.336V178.143H948.049V254.047C948.049 262.781 945.93 270.406 941.707 276.943L941.706 276.944C937.535 283.43 931.601 288.492 923.882 292.125C916.22 295.704 907.348 297.5 897.253 297.5C887.158 297.5 878.313 295.704 870.707 292.126C863.099 288.493 857.19 283.431 852.963 276.943C848.795 270.407 846.704 262.781 846.704 254.047V178.143H876.992V251.336C876.992 255.14 877.862 258.594 879.609 261.687L879.611 261.69C881.358 264.727 883.784 267.119 886.88 268.86C889.98 270.603 893.441 271.471 897.253 271.471C901.225 271.471 904.77 270.605 907.872 268.86C910.97 267.118 913.37 264.725 915.063 261.684L915.065 261.681C916.755 258.589 917.596 255.137 917.596 251.336ZM1052.54 194.432C1056.24 200.022 1058.13 206.494 1058.21 213.866H1029.12C1028.85 211.307 1028.1 209.077 1026.86 207.19C1025.53 205.177 1023.61 203.693 1021.11 202.729C1018.67 201.711 1015.61 201.214 1011.95 201.214C1008.62 201.214 1005.78 201.63 1003.46 202.477L1003.46 202.479C1001.2 203.324 999.438 204.522 998.216 206.09L998.214 206.092C997.048 207.605 996.465 209.353 996.464 211.318C996.35 214.509 997.705 217.073 1000.47 218.969C1003.18 220.829 1007.45 222.434 1013.23 223.808L1013.24 223.81L1013.25 223.812L1023.21 225.782C1023.21 225.782 1023.21 225.782 1023.21 225.783C1035.84 228.511 1045.03 232.889 1050.87 238.869L1050.87 238.872C1056.75 244.794 1059.75 252.359 1059.86 261.609C1059.86 269.242 1057.94 275.707 1054.11 281.031L1054.11 281.032C1050.33 286.309 1044.9 290.391 1037.78 293.264C1030.72 296.082 1022.2 297.5 1012.2 297.5C1001.87 297.5 992.935 295.946 985.379 292.854C977.833 289.767 972.044 285.119 967.988 278.913C964.007 272.769 961.887 265.094 961.657 255.862H990.651C990.928 259.35 991.9 262.375 993.582 264.921L993.585 264.925C995.344 267.53 997.782 269.505 1000.88 270.854L1000.89 270.857C1003.98 272.148 1007.62 272.786 1011.78 272.786C1015.34 272.786 1018.39 272.315 1020.94 271.357C1023.46 270.404 1025.41 269.1 1026.75 267.425C1028.14 265.747 1028.83 263.8 1028.83 261.605C1028.83 259.522 1028.19 257.708 1026.9 256.188C1025.62 254.679 1023.59 253.381 1020.87 252.271C1018.14 251.104 1014.57 250.056 1010.16 249.122C1010.16 249.122 1010.16 249.122 1010.16 249.122L998.144 246.412L998.137 246.41C987.269 244.122 978.994 240.291 973.263 234.951C967.614 229.582 964.776 222.464 964.776 213.545C964.776 206.249 966.778 199.835 970.774 194.284L970.776 194.282C974.779 188.669 980.329 184.314 987.447 181.224L987.449 181.223C994.621 178.078 1002.81 176.5 1012.03 176.5C1021.42 176.5 1029.55 178.079 1036.44 181.22L1036.45 181.222C1043.4 184.309 1048.75 188.714 1052.54 194.432ZM1104.08 249.693V296.103H1073.79V178.143H1104.08V224.471V224.971H1104.58H1148.71H1149.21V224.471V178.143H1179.5V296.103H1149.21V249.693V249.193H1148.71H1104.58H1104.08V249.693Z" stroke="url(#paint18_linear_734_80)"/>
</g>
</g>
<defs>
<filter id="filter0_f_734_80" x="-299" y="-118" width="1493" height="1493" filterUnits="userSpaceOnUse" color-interpolation-filters="sRGB">
<feFlood flood-opacity="0" result="BackgroundImageFix"/>
<feBlend mode="normal" in="SourceGraphic" in2="BackgroundImageFix" result="shape"/>
<feGaussianBlur stdDeviation="150" result="effect1_foregroundBlur_734_80"/>
</filter>
<filter id="filter1_f_734_80" x="-299" y="-642" width="1493" height="1490" filterUnits="userSpaceOnUse" color-interpolation-filters="sRGB">
<feFlood flood-opacity="0" result="BackgroundImageFix"/>
<feBlend mode="normal" in="SourceGraphic" in2="BackgroundImageFix" result="shape"/>
<feGaussianBlur stdDeviation="150" result="effect1_foregroundBlur_734_80"/>
</filter>
<filter id="filter2_f_734_80" x="-219.775" y="-969.66" width="1941.19" height="1398.44" filterUnits="userSpaceOnUse" color-interpolation-filters="sRGB">
<feFlood flood-opacity="0" result="BackgroundImageFix"/>
<feBlend mode="normal" in="SourceGraphic" in2="BackgroundImageFix" result="shape"/>
<feGaussianBlur stdDeviation="150" result="effect1_foregroundBlur_734_80"/>
</filter>
<filter id="filter3_f_734_80" x="727" y="-1124" width="1493" height="2098" filterUnits="userSpaceOnUse" color-interpolation-filters="sRGB">
<feFlood flood-opacity="0" result="BackgroundImageFix"/>
<feBlend mode="normal" in="SourceGraphic" in2="BackgroundImageFix" result="shape"/>
<feGaussianBlur stdDeviation="150" result="effect1_foregroundBlur_734_80"/>
</filter>
<filter id="filter4_f_734_80" x="695" y="-281" width="1491" height="1493" filterUnits="userSpaceOnUse" color-interpolation-filters="sRGB">
<feFlood flood-opacity="0" result="BackgroundImageFix"/>
<feBlend mode="normal" in="SourceGraphic" in2="BackgroundImageFix" result="shape"/>
<feGaussianBlur stdDeviation="150" result="effect1_foregroundBlur_734_80"/>
</filter>
<filter id="filter5_f_734_80" x="559" y="-4" width="801" height="482" filterUnits="userSpaceOnUse" color-interpolation-filters="sRGB">
<feFlood flood-opacity="0" result="BackgroundImageFix"/>
<feBlend mode="normal" in="SourceGraphic" in2="BackgroundImageFix" result="shape"/>
<feGaussianBlur stdDeviation="90" result="effect1_foregroundBlur_734_80"/>
</filter>
<filter id="filter6_f_734_80" x="719" y="279" width="481" height="162" filterUnits="userSpaceOnUse" color-interpolation-filters="sRGB">
<feFlood flood-opacity="0" result="BackgroundImageFix"/>
<feBlend mode="normal" in="SourceGraphic" in2="BackgroundImageFix" result="shape"/>
<feGaussianBlur stdDeviation="10" result="effect1_foregroundBlur_734_80"/>
</filter>
<filter id="filter7_f_734_80" x="734" y="289" width="451" height="15" filterUnits="userSpaceOnUse" color-interpolation-filters="sRGB">
<feFlood flood-opacity="0" result="BackgroundImageFix"/>
<feBlend mode="normal" in="SourceGraphic" in2="BackgroundImageFix" result="shape"/>
<feGaussianBlur stdDeviation="2.5" result="effect1_foregroundBlur_734_80"/>
</filter>
<filter id="filter8_iii_734_80" x="738" y="175.5" width="442.5" height="123" filterUnits="userSpaceOnUse" color-interpolation-filters="sRGB">
<feFlood flood-opacity="0" result="BackgroundImageFix"/>
<feBlend mode="normal" in="SourceGraphic" in2="BackgroundImageFix" result="shape"/>
<feColorMatrix in="SourceAlpha" type="matrix" values="0 0 0 0 0 0 0 0 0 0 0 0 0 0 0 0 0 0 127 0" result="hardAlpha"/>
<feOffset dx="0.5" dy="0.5"/>
<feGaussianBlur stdDeviation="1.5"/>
<feComposite in2="hardAlpha" operator="arithmetic" k2="-1" k3="1"/>
<feColorMatrix type="matrix" values="0 0 0 0 1 0 0 0 0 1 0 0 0 0 1 0 0 0 1 0"/>
<feBlend mode="normal" in2="shape" result="effect1_innerShadow_734_80"/>
<feColorMatrix in="SourceAlpha" type="matrix" values="0 0 0 0 0 0 0 0 0 0 0 0 0 0 0 0 0 0 127 0" result="hardAlpha"/>
<feOffset dx="-0.5" dy="-0.5"/>
<feGaussianBlur stdDeviation="1"/>
<feComposite in2="hardAlpha" operator="arithmetic" k2="-1" k3="1"/>
<feColorMatrix type="matrix" values="0 0 0 0 0 0 0 0 0 0.158118 0 0 0 0 0.247059 0 0 0 0.2 0"/>
<feBlend mode="normal" in2="effect1_innerShadow_734_80" result="effect2_innerShadow_734_80"/>
<feColorMatrix in="SourceAlpha" type="matrix" values="0 0 0 0 0 0 0 0 0 0 0 0 0 0 0 0 0 0 127 0" result="hardAlpha"/>
<feOffset dx="-1"/>
<feGaussianBlur stdDeviation="0.5"/>
<feComposite in2="hardAlpha" operator="arithmetic" k2="-1" k3="1"/>
<feColorMatrix type="matrix" values="0 0 0 0 0 0 0 0 0 0 0 0 0 0 0 0 0 0 0.2 0"/>
<feBlend mode="normal" in2="effect2_innerShadow_734_80" result="effect3_innerShadow_734_80"/>
</filter>
<filter id="filter9_f_734_80" x="719" y="156" width="481" height="162" filterUnits="userSpaceOnUse" color-interpolation-filters="sRGB">
<feFlood flood-opacity="0" result="BackgroundImageFix"/>
<feBlend mode="normal" in="SourceGraphic" in2="BackgroundImageFix" result="shape"/>
<feGaussianBlur stdDeviation="10" result="effect1_foregroundBlur_734_80"/>
</filter>
<radialGradient id="paint0_radial_734_80" cx="0" cy="0" r="1" gradientUnits="userSpaceOnUse" gradientTransform="translate(960 250) rotate(90) scale(250 960)">
<stop stop-color="#5E8C61"/>
<stop offset="1" stop-color="#07370A"/>
</radialGradient>
<linearGradient id="paint1_linear_734_80" x1="959.22" y1="176" x2="959.28" y2="324.646" gradientUnits="userSpaceOnUse">
<stop stop-color="#B8E1FF"/>
<stop offset="0.34" stop-color="#78C0E9"/>
<stop offset="0.68" stop-color="#0086C0"/>
<stop offset="1" stop-color="#003A5A"/>
</linearGradient>
<linearGradient id="paint2_linear_734_80" x1="959.22" y1="176" x2="959.28" y2="324.646" gradientUnits="userSpaceOnUse">
<stop stop-color="#B8E1FF"/>
<stop offset="0.34" stop-color="#78C0E9"/>
<stop offset="0.68" stop-color="#0086C0"/>
<stop offset="1" stop-color="#003A5A"/>
</linearGradient>
<linearGradient id="paint3_linear_734_80" x1="959.22" y1="176" x2="959.28" y2="324.646" gradientUnits="userSpaceOnUse">
<stop stop-color="#B8E1FF"/>
<stop offset="0.34" stop-color="#78C0E9"/>
<stop offset="0.68" stop-color="#0086C0"/>
<stop offset="1" stop-color="#003A5A"/>
</linearGradient>
<linearGradient id="paint4_linear_734_80" x1="959.22" y1="176" x2="959.28" y2="324.646" gradientUnits="userSpaceOnUse">
<stop stop-color="#B8E1FF"/>
<stop offset="0.34" stop-color="#78C0E9"/>
<stop offset="0.68" stop-color="#0086C0"/>
<stop offset="1" stop-color="#003A5A"/>
</linearGradient>
<linearGradient id="paint5_linear_734_80" x1="958.567" y1="303.382" x2="958.745" y2="420.998" gradientUnits="userSpaceOnUse">
<stop stop-color="#B8EEFF"/>
<stop offset="1" stop-color="#003F5A" stop-opacity="0"/>
</linearGradient>
<linearGradient id="paint6_linear_734_80" x1="958.567" y1="303.382" x2="958.745" y2="420.998" gradientUnits="userSpaceOnUse">
<stop stop-color="#B8EEFF"/>
<stop offset="1" stop-color="#003F5A" stop-opacity="0"/>
</linearGradient>
<linearGradient id="paint7_linear_734_80" x1="958.567" y1="303.382" x2="958.745" y2="420.998" gradientUnits="userSpaceOnUse">
<stop stop-color="#B8EEFF"/>
<stop offset="1" stop-color="#003F5A" stop-opacity="0"/>
</linearGradient>
<linearGradient id="paint8_linear_734_80" x1="958.567" y1="303.382" x2="958.745" y2="420.998" gradientUnits="userSpaceOnUse">
<stop stop-color="#B8EEFF"/>
<stop offset="1" stop-color="#003F5A" stop-opacity="0"/>
</linearGradient>
<linearGradient id="paint9_linear_734_80" x1="959.22" y1="176" x2="959.28" y2="324.646" gradientUnits="userSpaceOnUse">
<stop stop-color="#D7E6F1"/>
<stop offset="0.34" stop-color="#78C0E9"/>
<stop offset="0.68" stop-color="#0086C0"/>
<stop offset="1" stop-color="#003A5A"/>
</linearGradient>
<linearGradient id="paint10_linear_734_80" x1="959.22" y1="176" x2="959.28" y2="324.646" gradientUnits="userSpaceOnUse">
<stop stop-color="#D7E6F1"/>
<stop offset="0.34" stop-color="#78C0E9"/>
<stop offset="0.68" stop-color="#0086C0"/>
<stop offset="1" stop-color="#003A5A"/>
</linearGradient>
<linearGradient id="paint11_linear_734_80" x1="959.22" y1="176" x2="959.28" y2="324.646" gradientUnits="userSpaceOnUse">
<stop stop-color="#D7E6F1"/>
<stop offset="0.34" stop-color="#78C0E9"/>
<stop offset="0.68" stop-color="#0086C0"/>
<stop offset="1" stop-color="#003A5A"/>
</linearGradient>
<linearGradient id="paint12_linear_734_80" x1="959.22" y1="176" x2="959.28" y2="324.646" gradientUnits="userSpaceOnUse">
<stop stop-color="#D7E6F1"/>
<stop offset="0.34" stop-color="#78C0E9"/>
<stop offset="0.68" stop-color="#0086C0"/>
<stop offset="1" stop-color="#003A5A"/>
</linearGradient>
<linearGradient id="paint13_linear_734_80" x1="959.781" y1="176" x2="959.221" y2="298" gradientUnits="userSpaceOnUse">
<stop stop-color="white" stop-opacity="0.5"/>
<stop offset="1" stop-color="white" stop-opacity="0"/>
</linearGradient>
<radialGradient id="paint14_radial_734_80" cx="0" cy="0" r="1" gradientUnits="userSpaceOnUse" gradientTransform="translate(938.367 182.134) rotate(24.664) scale(279.299 77.3264)">
<stop stop-color="white" stop-opacity="0.4"/>
<stop offset="1" stop-color="white" stop-opacity="0"/>
</radialGradient>
<radialGradient id="paint15_radial_734_80" cx="0" cy="0" r="1" gradientUnits="userSpaceOnUse" gradientTransform="translate(938.367 182.134) rotate(24.664) scale(279.299 77.3264)">
<stop stop-color="white" stop-opacity="0.4"/>
<stop offset="1" stop-color="white" stop-opacity="0"/>
</radialGradient>
<radialGradient id="paint16_radial_734_80" cx="0" cy="0" r="1" gradientUnits="userSpaceOnUse" gradientTransform="translate(938.367 182.134) rotate(24.664) scale(279.299 77.3264)">
<stop stop-color="white" stop-opacity="0.4"/>
<stop offset="1" stop-color="white" stop-opacity="0"/>
</radialGradient>
<radialGradient id="paint17_radial_734_80" cx="0" cy="0" r="1" gradientUnits="userSpaceOnUse" gradientTransform="translate(938.367 182.134) rotate(24.664) scale(279.299 77.3264)">
<stop stop-color="white" stop-opacity="0.4"/>
<stop offset="1" stop-color="white" stop-opacity="0"/>
</radialGradient>
<linearGradient id="paint18_linear_734_80" x1="959.781" y1="176" x2="959.221" y2="298" gradientUnits="userSpaceOnUse">
<stop stop-color="white" stop-opacity="0.5"/>
<stop offset="1" stop-color="white" stop-opacity="0"/>
</linearGradient>
<clipPath id="clip0_734_80">
<rect width="1920" height="500" fill="white"/>
</clipPath>
</defs>
</svg>
