<svg width="24" height="24" viewBox="0 0 24 24" fill="none" xmlns="http://www.w3.org/2000/svg">
<path d="M16.2525 23.25V14.5425H19.1688L19.605 11.1575H16.2525V8.99875C16.2525 8.01875 16.525 7.35 17.93 7.35H19.7225V4.32125C18.8548 4.22871 17.9826 4.18405 17.11 4.1875C14.5262 4.1875 12.7575 5.765 12.7575 8.6625V11.1575H9.835V14.5425H12.7575V23.25H2C1.66848 23.25 1.35054 23.1183 1.11612 22.8839C0.881696 22.6495 0.75 22.3315 0.75 22V2C0.75 1.66848 0.881696 1.35054 1.11612 1.11612C1.35054 0.881696 1.66848 0.75 2 0.75H22C22.3315 0.75 22.6495 0.881696 22.8839 1.11612C23.1183 1.35054 23.25 1.66848 23.25 2V22C23.25 22.3315 23.1183 22.6495 22.8839 22.8839C22.6495 23.1183 22.3315 23.25 22 23.25H16.2525Z" fill="black"/>
</svg>
