<svg width="106" height="104" viewBox="0 0 106 104" fill="none" xmlns="http://www.w3.org/2000/svg">
<path d="M106 53.3079C106 23.8667 82.2711 0 53 0C23.7289 0 0 23.8667 0 53.3079C0 76.9957 15.3738 97.0509 36.623 103.992C39.5266 103.098 39.6629 101.319 39.6629 101.319C39.6629 101.319 39.6629 96.0533 39.6629 91.1871C36.4716 91.7773 32.5079 91.7849 31.0656 91.7849C29.309 91.7849 23.4601 90.3151 20.8858 83.6668C18.3115 77.0186 13.515 76.3712 13.515 75.1947C13.515 74.0181 14.5674 73.782 14.5674 73.782C14.5674 73.782 15.211 73.782 18.0768 73.782C20.9426 73.782 23.8084 78.6064 25.7996 81.5497C27.7909 84.4931 32.5836 85.0795 34.927 85.0795C36.2406 85.0795 38.2774 84.4131 39.8257 83.8267C40.4579 79.7068 42.824 76.6073 42.824 76.6073C19.1898 74.4902 18.6068 56.7197 18.6068 49.7782C18.6068 42.8367 24.2248 36.0095 24.2248 36.0095C24.2248 36.0095 21.5029 28.2418 24.9251 21.8867C32.2959 21.9438 39.6667 27.5336 39.6667 27.5336C39.6667 27.5336 46.3296 25.4203 53 25.4203C59.6704 25.4203 66.3371 27.5374 66.3371 27.5374C66.3371 27.5374 73.7079 21.9476 81.0786 21.8905C84.5009 28.2456 81.779 36.0133 81.779 36.0133C81.779 36.0133 87.397 42.8367 87.397 49.782C87.397 56.7235 86.8102 74.4941 63.1798 76.6111C63.1798 76.6111 66.3371 80.7311 66.3371 85.7915C66.3371 90.852 66.3371 101.327 66.3371 101.327C66.3371 101.327 66.4696 103.101 69.377 104C90.6262 97.0509 106 76.9957 106 53.3079Z" fill="black"/>
</svg>
