<svg width="25" height="25" viewBox="0 0 25 25" fill="none" xmlns="http://www.w3.org/2000/svg">
<path d="M12 2.5H3.83333C3.21449 2.5 2.621 2.74583 2.18342 3.18342C1.74583 3.621 1.5 4.21449 1.5 4.83333V21.1667C1.5 21.7855 1.74583 22.379 2.18342 22.8166C2.621 23.2542 3.21449 23.5 3.83333 23.5H20.1667C20.7855 23.5 21.379 23.2542 21.8166 22.8166C22.2542 22.379 22.5 21.7855 22.5 21.1667V13" stroke="black" stroke-width="1.4" stroke-linecap="round" stroke-linejoin="round"/>
<path d="M19.4375 2.0625C19.9016 1.59838 20.5311 1.33763 21.1875 1.33763C21.8439 1.33763 22.4734 1.59838 22.9375 2.0625C23.4016 2.52663 23.6624 3.15613 23.6624 3.81251C23.6624 4.46888 23.4016 5.09838 22.9375 5.56251L12.4223 16.0788C12.1453 16.3556 11.8031 16.5582 11.4272 16.668L8.07534 17.648C7.97495 17.6773 7.86854 17.679 7.76723 17.6531C7.66593 17.6271 7.57347 17.5744 7.49953 17.5005C7.42558 17.4265 7.37288 17.3341 7.34692 17.2328C7.32097 17.1315 7.32273 17.0251 7.35201 16.9247L8.33201 13.5728C8.44229 13.1972 8.6453 12.8554 8.92234 12.5788L19.4375 2.0625Z" stroke="black" stroke-width="1.4" stroke-linecap="round" stroke-linejoin="round"/>
</svg>
