<svg width="23" height="24" viewBox="0 0 23 24" fill="none" xmlns="http://www.w3.org/2000/svg">
<path d="M16.75 9.70717L6.25 3.59297M12.988 1.40255L20.488 5.76962C20.9474 6.03702 21.3292 6.42347 21.5947 6.88976C21.8603 7.35605 22.0001 7.8856 22 8.42472V15.5753C22.0001 16.1144 21.8603 16.644 21.5947 17.1102C21.3292 17.5765 20.9474 17.963 20.488 18.2304L12.988 22.5974C12.5348 22.8612 12.0219 23 11.5 23C10.9781 23 10.4652 22.8612 10.012 22.5974L2.512 18.2304C2.05262 17.963 1.6708 17.5765 1.40526 17.1102C1.13972 16.644 0.999906 16.1144 1 15.5753V8.42472C0.999906 7.8856 1.13972 7.35605 1.40526 6.88976C1.6708 6.42347 2.05262 6.03702 2.512 5.76962L10.012 1.40255C10.4652 1.13875 10.9781 1 11.5 1C12.0219 1 12.5348 1.13875 12.988 1.40255Z" stroke="black" stroke-width="1.3" stroke-linecap="round" stroke-linejoin="round"/>
<path d="M2 8L10.1145 12.485C10.5403 12.7203 11.0164 12.8434 11.5 12.8434C11.9836 12.8434 12.4597 12.7203 12.8855 12.485L21 8M11.5 13.25V23" stroke="black" stroke-width="1.3" stroke-linecap="round" stroke-linejoin="round"/>
</svg>
