<svg width="25" height="24" viewBox="0 0 25 24" fill="none" xmlns="http://www.w3.org/2000/svg">
<path d="M13.9281 0.235352C15.2786 0.238881 15.9641 0.24594 16.5559 0.26241L16.7888 0.270646C17.0577 0.280057 17.323 0.291822 17.6435 0.30594C18.9209 0.364763 19.7924 0.562411 20.5571 0.852999C21.3494 1.15182 22.0169 1.55653 22.6844 2.20947C23.295 2.79739 23.7674 3.50885 24.0685 4.29418C24.365 5.04359 24.5667 5.8977 24.6267 7.15065C24.6411 7.46359 24.6531 7.72359 24.6627 7.98829L24.67 8.21653C24.688 8.79535 24.6952 9.46712 24.6976 10.7906L24.6988 11.6683V13.2095C24.7017 14.0676 24.6925 14.9257 24.6712 15.7836L24.6639 16.0118C24.6543 16.2765 24.6423 16.5365 24.6279 16.8495C24.5679 18.1024 24.3638 18.9554 24.0685 19.7059C23.7674 20.4913 23.295 21.2027 22.6844 21.7906C22.0844 22.3891 21.3585 22.852 20.5571 23.1471C19.7924 23.4377 18.9209 23.6354 17.6435 23.6942L16.7888 23.7295L16.5559 23.7365C15.9641 23.753 15.2786 23.7612 13.9281 23.7636L13.0325 23.7648H11.4611C10.585 23.7678 9.709 23.7588 8.83322 23.7377L8.60032 23.7306C8.31534 23.7201 8.03042 23.7079 7.74558 23.6942C6.46827 23.6354 5.59672 23.4377 4.83082 23.1471C4.02989 22.8519 3.30434 22.389 2.70477 21.7906C2.09366 21.2028 1.62086 20.4914 1.31941 19.7059C1.02289 18.9565 0.821212 18.1024 0.761188 16.8495L0.725174 16.0118L0.719172 15.7836C0.697042 14.9257 0.687037 14.0676 0.689159 13.2095V10.7906C0.685837 9.93253 0.694641 9.07441 0.71557 8.21653L0.723973 7.98829C0.733577 7.72359 0.745582 7.46359 0.759988 7.15065C0.820012 5.8977 1.02169 5.04476 1.31821 4.29418C1.62037 3.50853 2.09399 2.79704 2.70597 2.20947C3.30519 1.61129 4.03032 1.14838 4.83082 0.852999C5.59672 0.562411 6.46707 0.364763 7.74558 0.30594C8.06491 0.291822 8.33142 0.280057 8.60032 0.270646L8.83322 0.263587C9.7086 0.242684 10.5842 0.233664 11.4599 0.236528L13.9281 0.235352ZM12.694 6.1177C11.102 6.1177 9.57529 6.73745 8.44962 7.84061C7.32395 8.94376 6.69156 10.44 6.69156 12.0001C6.69156 13.5602 7.32395 15.0564 8.44962 16.1595C9.57529 17.2627 11.102 17.8824 12.694 17.8824C14.2859 17.8824 15.8126 17.2627 16.9383 16.1595C18.064 15.0564 18.6964 13.5602 18.6964 12.0001C18.6964 10.44 18.064 8.94376 16.9383 7.84061C15.8126 6.73745 14.2859 6.1177 12.694 6.1177ZM12.694 8.47065C13.1669 8.47057 13.6352 8.56178 14.0722 8.73908C14.5092 8.91638 14.9063 9.17629 15.2407 9.50397C15.5752 9.83165 15.8406 10.2207 16.0216 10.6489C16.2027 11.077 16.2959 11.536 16.296 11.9995C16.2961 12.463 16.203 12.9219 16.0221 13.3502C15.8412 13.7784 15.576 14.1675 15.2416 14.4953C14.9072 14.8231 14.5102 15.0831 14.0733 15.2606C13.6364 15.438 13.1681 15.5294 12.6952 15.5295C11.74 15.5295 10.824 15.1576 10.1486 14.4957C9.47316 13.8338 9.09372 12.9361 9.09372 12.0001C9.09372 11.064 9.47316 10.1663 10.1486 9.50439C10.824 8.84249 11.74 8.47065 12.6952 8.47065M18.9977 4.353C18.5997 4.353 18.218 4.50794 17.9366 4.78372C17.6552 5.05951 17.4971 5.43356 17.4971 5.82359C17.4971 6.21361 17.6552 6.58766 17.9366 6.86345C18.218 7.13924 18.5997 7.29418 18.9977 7.29418C19.3957 7.29418 19.7774 7.13924 20.0588 6.86345C20.3402 6.58766 20.4983 6.21361 20.4983 5.82359C20.4983 5.43356 20.3402 5.05951 20.0588 4.78372C19.7774 4.50794 19.3957 4.353 18.9977 4.353Z" fill="black"/>
</svg>
