<svg width="19" height="19" viewBox="0 0 19 19" fill="none" xmlns="http://www.w3.org/2000/svg">
<g clip-path="url(#clip0_147_358)">
<path d="M19 17.3617C19 18.2628 18.2642 18.9999 17.3622 18.9999H1.63819C0.737043 18.9999 0 18.2627 0 17.3617V1.6379C0 0.736763 0.737183 0 1.63819 0H17.3636C18.2655 0 19.0014 0.736763 19.0014 1.63776L19 17.3617Z" fill="#FEE500"/>
<path d="M9.60891 4.66113C6.59524 4.66113 4.1524 6.58726 4.1524 8.96347C4.1524 10.4997 5.17389 11.8491 6.71011 12.6087L6.15497 14.5863C6.15497 14.5863 6.14403 14.6786 6.20378 14.714C6.24418 14.7343 6.2913 14.7372 6.33394 14.7218C6.50603 14.6977 8.32767 13.4202 8.64255 13.2003C8.96275 13.2448 9.28576 13.2667 9.60891 13.266C12.6226 13.266 15.0654 11.3398 15.0654 8.96361C15.0654 6.5874 12.6227 4.66113 9.60891 4.66113Z" fill="#181600"/>
</g>
<defs>
<clipPath id="clip0_147_358">
<rect width="19" height="19" fill="white"/>
</clipPath>
</defs>
</svg>
