<svg width="20" height="18" viewBox="0 0 20 18" fill="none" xmlns="http://www.w3.org/2000/svg">
<path d="M10 2.85238L9.49767 3.35249C9.56276 3.4223 9.64078 3.47783 9.72709 3.51575C9.8134 3.55368 9.90622 3.57323 10 3.57323C10.0938 3.57323 10.1866 3.55368 10.2729 3.51575C10.3592 3.47783 10.4372 3.4223 10.5023 3.35249L10 2.85238ZM7.60558 15.184C6.19535 14.0347 4.65395 12.9123 3.4307 11.4889C2.23256 10.0925 1.39535 8.46421 1.39535 6.35028H0C0 8.91431 1.03256 10.8705 2.38791 12.4468C3.71814 13.9953 5.41488 15.2359 6.74139 16.3169L7.60558 15.184ZM1.39535 6.35028C1.39535 4.2825 2.52558 2.5475 4.06884 1.81753C5.56837 1.10872 7.58326 1.29626 9.49767 3.35249L10.5023 2.35323C8.23256 -0.0867441 5.59442 -0.489719 3.48837 0.505696C1.42884 1.47995 0 3.742 0 6.35028H1.39535ZM6.74139 16.3169C7.2186 16.7055 7.73023 17.119 8.24837 17.4326C8.76651 17.7451 9.35814 18 10 18V16.5574C9.71163 16.5574 9.37302 16.442 8.95256 16.1871C8.53116 15.9332 8.09488 15.5831 7.60558 15.184L6.74139 16.3169ZM13.2586 16.3169C14.5851 15.235 16.2819 13.9962 17.6121 12.4468C18.9674 10.8696 20 8.91431 20 6.35028H18.6047C18.6047 8.46421 17.7674 10.0925 16.5693 11.4889C15.346 12.9123 13.8047 14.0347 12.3944 15.184L13.2586 16.3169ZM20 6.35028C20 3.742 18.5721 1.47995 16.5116 0.505696C14.4056 -0.489719 11.7693 -0.0867438 9.49767 2.35226L10.5023 3.35249C12.4167 1.29722 14.4316 1.10872 15.9312 1.81753C17.4744 2.5475 18.6047 4.28154 18.6047 6.35028H20ZM12.3944 15.184C11.9051 15.5831 11.4688 15.9332 11.0474 16.1871C10.627 16.441 10.2884 16.5574 10 16.5574V18C10.6419 18 11.2335 17.7451 11.7516 17.4326C12.2707 17.119 12.7814 16.7055 13.2586 16.3169L12.3944 15.184Z" fill="#181818" fill-opacity="0.5"/>
</svg>
