<svg width="21" height="18" viewBox="0 0 21 18" fill="none" xmlns="http://www.w3.org/2000/svg">
<path d="M20.5625 6.16406C20.5625 12.4531 11.2376 17.5437 10.8405 17.7539C10.7358 17.8102 10.6188 17.8397 10.5 17.8397C10.3812 17.8397 10.2642 17.8102 10.1595 17.7539C9.76238 17.5437 0.4375 12.4531 0.4375 6.16406C0.439165 4.68723 1.02657 3.27137 2.07085 2.2271C3.11512 1.18282 4.53098 0.595415 6.00781 0.59375C7.86309 0.59375 9.48746 1.39156 10.5 2.74012C11.5125 1.39156 13.1369 0.59375 14.9922 0.59375C16.469 0.595415 17.8849 1.18282 18.9292 2.2271C19.9734 3.27137 20.5608 4.68723 20.5625 6.16406Z" fill="#181818"/>
</svg>
