<svg width="20" height="18" viewBox="0 0 20 18" fill="none" xmlns="http://www.w3.org/2000/svg">
<path d="M19.625 6.16406C19.625 12.4531 10.7055 17.5437 10.3257 17.7539C10.2256 17.8102 10.1137 17.8397 10 17.8397C9.88632 17.8397 9.77441 17.8102 9.6743 17.7539C9.29445 17.5437 0.375 12.4531 0.375 6.16406C0.376592 4.68723 0.938458 3.27137 1.93733 2.2271C2.9362 1.18282 4.29051 0.595415 5.70312 0.59375C7.47773 0.59375 9.03148 1.39156 10 2.74012C10.9685 1.39156 12.5223 0.59375 14.2969 0.59375C15.7095 0.595415 17.0638 1.18282 18.0627 2.2271C19.0615 3.27137 19.6234 4.68723 19.625 6.16406Z" fill="#FF005C"/>
</svg>
