<svg width="22" height="20" viewBox="0 0 22 20" fill="none" xmlns="http://www.w3.org/2000/svg">
<path d="M11 3.16931L10.4474 3.72499C10.519 3.80255 10.6049 3.86425 10.6998 3.90639C10.7947 3.94853 10.8968 3.97025 11 3.97025C11.1032 3.97025 11.2053 3.94853 11.3002 3.90639C11.3951 3.86425 11.481 3.80255 11.5526 3.72499L11 3.16931ZM8.36614 16.8711C6.81488 15.5941 5.11935 14.347 3.77377 12.7655C2.45581 11.2138 1.53488 9.40468 1.53488 7.05586H0C0 9.90479 1.13581 12.0784 2.6267 13.8298C4.08995 15.5503 5.95637 16.9288 7.41553 18.1299L8.36614 16.8711ZM1.53488 7.05586C1.53488 4.75834 2.77814 2.83056 4.47572 2.01948C6.12521 1.23191 8.34158 1.44029 10.4474 3.72499L11.5526 2.6147C9.05581 -0.0963823 6.15386 -0.544132 3.83721 0.561885C1.57172 1.64439 0 4.15778 0 7.05586H1.53488ZM7.41553 18.1299C7.94046 18.5616 8.50326 19.0211 9.07321 19.3695C9.64316 19.7168 10.294 20 11 20V18.3971C10.6828 18.3971 10.3103 18.2688 9.84781 17.9857C9.38428 17.7035 8.90437 17.3146 8.36614 16.8711L7.41553 18.1299ZM14.5845 18.1299C16.0436 16.9277 17.91 15.5514 19.3733 13.8298C20.8642 12.0773 22 9.90479 22 7.05586H20.4651C20.4651 9.40468 19.5442 11.2138 18.2262 12.7655C16.8807 14.347 15.1851 15.5941 13.6339 16.8711L14.5845 18.1299ZM22 7.05586C22 4.15778 20.4293 1.64439 18.1628 0.561885C15.8461 -0.544132 12.9462 -0.096382 10.4474 2.61363L11.5526 3.72499C13.6584 1.44136 15.8748 1.23191 17.5243 2.01948C19.2219 2.83056 20.4651 4.75727 20.4651 7.05586H22ZM13.6339 16.8711C13.0956 17.3146 12.6157 17.7035 12.1522 17.9857C11.6897 18.2678 11.3172 18.3971 11 18.3971V20C11.706 20 12.3568 19.7168 12.9268 19.3695C13.4978 19.0211 14.0595 18.5616 14.5845 18.1299L13.6339 16.8711Z" fill="#181818"/>
</svg>
