<svg width="28" height="28" viewBox="0 0 28 28" fill="none" xmlns="http://www.w3.org/2000/svg">
<path d="M14 3.5H5.83333C5.21449 3.5 4.621 3.74583 4.18342 4.18342C3.74583 4.621 3.5 5.21449 3.5 5.83333V22.1667C3.5 22.7855 3.74583 23.379 4.18342 23.8166C4.621 24.2542 5.21449 24.5 5.83333 24.5H22.1667C22.7855 24.5 23.379 24.2542 23.8166 23.8166C24.2542 23.379 24.5 22.7855 24.5 22.1667V14" stroke="black" stroke-width="1.25" stroke-linecap="round" stroke-linejoin="round"/>
<path d="M21.4374 3.0625C21.9016 2.59837 22.5311 2.33763 23.1874 2.33763C23.8438 2.33763 24.4733 2.59837 24.9374 3.0625C25.4016 3.52663 25.6623 4.15612 25.6623 4.8125C25.6623 5.46888 25.4016 6.09837 24.9374 6.5625L14.4223 17.0788C14.1453 17.3556 13.803 17.5582 13.4271 17.668L10.0753 18.648C9.97489 18.6773 9.86847 18.679 9.76717 18.6531C9.66587 18.6271 9.57341 18.5744 9.49947 18.5005C9.42552 18.4265 9.37282 18.3341 9.34686 18.2328C9.32091 18.1315 9.32267 18.0251 9.35195 17.9247L10.3319 14.5728C10.4422 14.1972 10.6452 13.8554 10.9223 13.5788L21.4374 3.0625Z" stroke="black" stroke-width="1.25" stroke-linecap="round" stroke-linejoin="round"/>
</svg>
