<svg width="494" height="234" viewBox="0 0 494 234" fill="none" xmlns="http://www.w3.org/2000/svg">
<path fill-rule="evenodd" clip-rule="evenodd" d="M1 11C1 5.47715 5.47715 1 11 1H483C488.523 1 493 5.47715 493 11V172.083C490.162 172.559 488 175.027 488 178C488 180.973 490.162 183.441 493 183.917V223C493 228.523 488.523 233 483 233H11C5.47714 233 1 228.523 1 223V183.917C3.83771 183.441 6 180.973 6 178C6 175.027 3.83771 172.559 1 172.083V11Z" fill="white"/>
<path d="M493 172.083L493.083 172.576L493.5 172.506V172.083H493ZM493 183.917H493.5V183.494L493.083 183.424L493 183.917ZM1 183.917L0.917273 183.424L0.5 183.494V183.917H1ZM1 172.083H0.5V172.506L0.917273 172.576L1 172.083ZM11 0.5C5.20101 0.5 0.5 5.20101 0.5 11H1.5C1.5 5.7533 5.75329 1.5 11 1.5V0.5ZM483 0.5H11V1.5H483V0.5ZM493.5 11C493.5 5.20101 488.799 0.5 483 0.5V1.5C488.247 1.5 492.5 5.75329 492.5 11H493.5ZM493.5 172.083V11H492.5V172.083H493.5ZM488.5 178C488.5 175.275 490.482 173.012 493.083 172.576L492.917 171.59C489.843 172.106 487.5 174.779 487.5 178H488.5ZM493.083 183.424C490.482 182.988 488.5 180.725 488.5 178H487.5C487.5 181.221 489.843 183.894 492.917 184.41L493.083 183.424ZM493.5 223V183.917H492.5V223H493.5ZM483 233.5C488.799 233.5 493.5 228.799 493.5 223H492.5C492.5 228.247 488.247 232.5 483 232.5V233.5ZM11 233.5H483V232.5H11V233.5ZM0.5 223C0.5 228.799 5.201 233.5 11 233.5V232.5C5.75329 232.5 1.5 228.247 1.5 223H0.5ZM0.5 183.917V223H1.5V183.917H0.5ZM5.5 178C5.5 180.725 3.51813 182.988 0.917273 183.424L1.08273 184.41C4.1573 183.894 6.5 181.221 6.5 178H5.5ZM0.917273 172.576C3.51813 173.012 5.5 175.275 5.5 178H6.5C6.5 174.779 4.1573 172.106 1.08273 171.59L0.917273 172.576ZM0.5 11V172.083H1.5V11H0.5Z" fill="#EBEBEB"/>
<path d="M9.42334 177.365H484.423" stroke="#EBEBEB" stroke-linecap="round" stroke-dasharray="4 4"/>
</svg>
