<svg width="20" height="20" viewBox="0 0 20 20" fill="none" xmlns="http://www.w3.org/2000/svg">
<path opacity="0.9" d="M18.3171 19.0544L13.3668 14.5723C12.7595 15.1097 12.0521 15.5463 11.2446 15.8823C10.4371 16.2182 9.56951 16.4092 8.64194 16.4553C6.34409 16.5693 4.36005 15.8699 2.68982 14.3568C1.01958 12.8437 0.127023 10.9387 0.0121524 8.64177C-0.102719 6.34481 0.596776 4.36076 2.11064 2.68964C3.6245 1.01852 5.5295 0.125965 7.82566 0.0119792C10.1218 -0.102007 12.1063 0.597467 13.7791 2.1104C15.4518 3.62333 16.344 5.52836 16.4555 7.82549C16.5015 8.75306 16.3974 9.63525 16.143 10.4721C15.8887 11.3089 15.5243 12.0561 15.0497 12.7136L20 17.1957L18.3171 19.0544ZM8.51636 13.9255C10.0974 13.8471 11.4141 13.2272 12.4664 12.0659C13.5186 10.9046 14.0051 9.53296 13.9257 7.95107C13.8463 6.36918 13.2265 5.05293 12.0661 4.00231C10.9057 2.9517 9.5341 2.46483 7.95124 2.54172C6.36839 2.6186 5.05216 3.2389 4.00255 4.4026C2.95294 5.56631 2.46606 6.9375 2.54189 8.51619C2.61772 10.0949 3.23804 11.4115 4.40284 12.4661C5.56764 13.5208 6.93881 14.0072 8.51636 13.9255Z" fill="black"/>
</svg>
